<svg clip-rule="evenodd" fill-rule="evenodd" height="512" image-rendering="optimizeQuality" shape-rendering="geometricPrecision" text-rendering="geometricPrecision" viewBox="0 0 1707 1707" width="512" xmlns="http://www.w3.org/2000/svg"><g id="Layer_x0020_1"><path d="m1395 255c172 0 312 140 312 312s-140 312-312 312-312-140-312-312 140-312 312-312zm-1138 659c0-60 48-108 108-108s108 48 108 108c0 59-48 108-108 108s-108-48-108-108zm793-247h-803c-136 0-247 111-247 247s111 247 247 247h910c131 0 240-104 246-235-162 3-307-103-353-259zm-455 247c0-60 49-108 108-108 60 0 108 48 108 108s-48 108-108 108c-59 0-108-48-108-108zm447-108c59 0 108 48 108 108s-49 108-108 108c-60 0-109-48-109-108s49-108 109-108zm-767 599c-13 0-24 10-24 23s11 23 24 23h857c13 0 23-10 23-23s-10-23-23-23zm143-146c-13 0-23 10-23 23s10 23 23 23h570c13 0 24-10 24-23s-11-23-24-23zm825-726c-6-11-20-15-31-9-11 7-15 21-9 32l58 101c7 12 19 21 34 12 95-54 189-109 283-163 11-7 15-21 9-32-7-11-21-15-32-9l-263 152z" fill-rule="nonzero"/></g></svg>