<svg id="Layer_1" height="512" viewBox="0 0 24 24" width="512" xmlns="http://www.w3.org/2000/svg" data-name="Layer 1"><path d="m1 22c-.553 0-1-.448-1-1v-18c0-.552.447-1 1-1s1 .448 1 1v18c0 .552-.447 1-1 1zm5-1v-18c0-.552-.447-1-1-1s-1 .448-1 1v18c0 .552.447 1 1 1s1-.448 1-1zm15 0v-18c0-.552-.447-1-1-1s-1 .448-1 1v18c0 .552.447 1 1 1s1-.448 1-1zm-8 0v-18c0-.552-.447-1-1-1s-1 .448-1 1v18c0 .552.447 1 1 1s1-.448 1-1zm-3-.5v-17c0-.829-.672-1.5-1.5-1.5s-1.5.671-1.5 1.5v17c0 .829.672 1.5 1.5 1.5s1.5-.671 1.5-1.5zm8 0v-17c0-.829-.672-1.5-1.5-1.5s-1.5.671-1.5 1.5v17c0 .829.672 1.5 1.5 1.5s1.5-.671 1.5-1.5zm6 .5v-18c0-.552-.447-1-1-1s-1 .448-1 1v18c0 .552.447 1 1 1s1-.448 1-1z"/></svg>