<svg height="512" viewBox="0 0 512 512" width="512" xmlns="http://www.w3.org/2000/svg" xmlns:xlink="http://www.w3.org/1999/xlink"><clipPath id="clip-path"><path d="m321.46 162.68h47.06v120.5h-47.06z" transform="matrix(.995 .101 -.101 .995 24.17 -33.57)"/></clipPath><g id="Blood_Donation" data-name="Blood Donation"><path d="m119.58 276.68c29.73 34.42 54.35 60.94 71 78.44 30.45 32.06 53.59 54.42 47.31 74.61-.7 2.25-4.35 8.69-10.3 13.47-58.29 46.88-140.1-140.51-140.1-140.51z" fill="#86ebf9"/><circle cx="393.31" cy="189.64" fill="#2d1929" r="31.42"/><g clip-path="url(#clip-path)"><path d="m321.46 162.68h47.06v120.5h-47.06z" fill="#f5b493" transform="matrix(.995 .101 -.101 .995 24.17 -33.57)"/><path d="m366.19 200.92a43.37 43.37 0 0 1 -12.63 19.58c-17.11 14.88-39.93 9.46-42.45 8.82l3-16.39z" fill="#eba284"/></g><path d="m207.35 79.36 4.29-5.36c15.3-19.15 45.89-2.9 38.43 20.45a51.78 51.78 0 0 1 -12.75 20.9l-29.65 29.65-32.09-32.08a48.38 48.38 0 0 1 -10.66-16c-9.31-23 20.77-41.41 37.4-23.06z" fill="#e73f46"/><path d="m408.2 65.14c-19.76-20.16-52.88-24.82-75-13.29a67.75 67.75 0 0 0 -16.58 10.5c-15.86 11.08-16 26.16-20.74 45.29-1.92 7.73-5.91 14.57-9.24 26.32s-3.84 23.28 2 45.8c4.49 17.42 9.36 25.31 13.25 28.75 14.91 13.17 39.7 4.51 48.95 1.27a99.26 99.26 0 0 0 23.43-12.19c13.12-7.71 43.8-29.44 50.05-67.87 1.26-8.23 6.68-41.36-16.12-64.58z" fill="#f5b493"/><g fill="#2d1929"><path d="m316.5 156.35c-4-3.1-5.83-6-5.47-8.7.78-5.93 11.11-5.12 17.05-22.26a.5.5 0 0 1 .64-.31.49.49 0 0 1 .3.63c-2.22 6.43-5.56 11.52-9.92 15.12-3.42 2.84-6.72 4.18-7.08 6.95-.3 2.29 1.41 4.91 5.1 7.78a.5.5 0 0 1 -.62.79z"/><path d="m313.12 124.47c-1 4.3-4.12 7.24-6.9 6.58s-4.2-4.7-3.17-9 4.12-7.24 6.9-6.58 4.2 4.7 3.17 9z"/><path d="m356.44 134.85c-1 4.3-4.12 7.24-6.9 6.58s-4.21-4.7-3.18-9 4.13-7.24 6.91-6.58 4.2 4.7 3.17 9z"/><path d="m328.21 103.36a1 1 0 0 1 -.76-.34c-.36-.42-8.94-10.15-21.38-5.37a1 1 0 0 1 -.71-1.87c13.77-5.3 23.51 5.82 23.61 5.93a1 1 0 0 1 -.76 1.65z"/><path d="m370.31 114.9a1 1 0 0 1 -.89-.53c-6.28-11.75-19.13-10-19.67-9.92a1 1 0 1 1 -.3-2c.14 0 14.78-2.06 21.74 11a1 1 0 0 1 -.88 1.45z"/></g><path d="m38.53 240.67c1.91-1.91 26.76 0 26.76 0s12.27 13.22-7.42 12-21.25-10.09-19.34-12z" fill="#eba284"/><path d="m322 237.21s-60.51-2.29-78.44 43.24-80.69 126-57.16 159.16 75.6-12.11 101.54-94.61z" fill="#86ebf9"/><path d="m332.81 233.82s-63.25 10.18-73 47.41c-9.41 36.23-4.39 199.77-4.39 199.77h160s15.91-186.17 7.44-222c-8.68-36.74-90.05-25.18-90.05-25.18z" fill="#917eec"/><path d="m319.88 236.31c1.52 11 8.08 20.18 16.45 22.43 12 3.23 28.77-7.47 31.37-26.9-6.71-5.05-12.22-6.13-16.39-5.88-7.05.42-12.38 5.96-31.43 10.35z" fill="#f5b493"/><path d="m319.9 236.75s-30.3 113.25-15.53 244.25h-57s-6.06-176.71 9.09-205.35c16.01-30.29 44.47-36.03 63.44-38.9z" fill="#86ebf9"/><path d="m365.93 239.61c-21.32 98.72-31.13 152.67-30.75 168.05.05 1.71.32 7.39-3.14 10.4-8.11 7-31.68-5.21-31.68-5.21s.08-1.86-2.87 68.15h65.44c.15-12 3.14-253.16 3-241.39z" fill="#6d5fde"/><path d="m367.7 231.84s-27.46 129.96-14.78 249.16h72.15s-3.25-134 1.11-180.13c1.88-19.82 4.05-36.4-5.61-48.67-10.74-13.64-35.5-20.42-52.87-20.36z" fill="#86ebf9"/><path d="m300.06 87.13c-.79-2.45-8.08-26.09 4.73-41.25 1.83-2.17 5.51-6.52 11.65-8.55 10.07-3.32 23.12.77 23.12.77 38.64-17.33 84.11-1.79 103.52 34.15 18.3 33.9 8.86 77.53-22.92 101.6 3.47 18.16-7.35 34.4-21.38 37.36-9.89 2.08-20.79-2.56-28-11.46 16.54-17.72 26-39.66 28.77-63.26 0 0-26.42-26.37-12.73-66.44-8.72-2.93-21.11-5.4-32.62-.17-7.52 3.42-9.65 7.84-16.91 12.17-7.09 4.22-18.54 8.09-37.23 5.08z" fill="#2d1929"/><path d="m420 129c-8.12-4.82-19.46-.73-25.32 9.14s-4 21.78 4.1 26.61 19.47.73 25.32-9.14 4.03-21.82-4.1-26.61z" fill="#f5b493"/><path d="m399.51 154.53a.5.5 0 1 1 0-1c.42 0 5-.11 6.18-4.6.8-3.19-4.89-5-4.94-5.05a.49.49 0 0 1 -.28-.73c.28-.46 6.93-11.15 14.69-9.56 6.75 1.37 5.34 9.08 5.33 9.16a.5.5 0 1 1 -1-.19c.06-.28 1.24-6.82-4.54-8-6.17-1.25-11.87 6.48-13.3 8.58 1.63.64 5.85 2.63 5 6-1.29 5.31-6.86 5.39-7.14 5.39z" fill="#2d1929"/><path d="m141.04 451.48h9.36v29.52h-9.36z" fill="#cc3745"/><path d="m262.26 277.47q-5.36 21.75-10.62 43c-20.35 21.18-22.31 52.88-7.1 77.48l2.82 83h50.13s-31-4.48-32.72-13.49 12.29-10.54 2.17-18.38-12.94-50.08-12.94-50.08a62.51 62.51 0 0 1 4.35-75.24q1.94-22.89 3.91-46.29z" fill="#40c2d6"/><path d="m311.13 237.67s-31.22 53.6-30.75 58.55 10.75 8.64 10.75 11.54-10.57 12.65-11.74 16.86 21.12 27.65 21.12 27.65 16.49-107 19.37-116z" fill="#40c2d6"/><path d="m350.16 442.83s54.84 23.17 74.55 20.67l.36 17.5s-46.98-8.45-74.91-38.17z" fill="#40c2d6"/><path d="m301.55 357.23c-.81 0-.93-.07-6.42-1a1.5 1.5 0 0 1 -1.22-1.73 1.51 1.51 0 0 1 1.74-1.22l5.32.94a3.38 3.38 0 0 0 3.95-2.93c2.91-25.59-3.61-46.41-16.6-53.05-4.29-2.19-8.41-2.89-12.25-2.09-12.68 2.67-21.92 21.45-23 46.72a3.4 3.4 0 0 0 2.56 3.42l5.22 1.32a1.5 1.5 0 1 1 -.73 2.91l-5.23-1.32a6.41 6.41 0 0 1 -4.82-6.46c1.13-26.66 11.33-46.56 25.37-49.52 4.53-1 9.32-.17 14.23 2.34 14.33 7.29 21.33 28.77 18.23 56.03a6.37 6.37 0 0 1 -6.35 5.64z" fill="#2d1929"/><rect fill="#2d1929" height="7.55" rx="1.75" transform="matrix(.961 .276 -.276 .961 106.26 -58.17)" width="11.01" x="254.52" y="345.1"/><rect fill="#2d1929" height="7.55" rx="1.75" transform="matrix(.961 .276 -.276 .961 109.07 -67.12)" width="11.01" x="287.77" y="350.62"/><path d="m275.49 364.17s-16.6-.76-24.46-3.36-15.6-11.11-19.53-11.13 2.22 8.31 2.22 8.31-9.1-8.29-12.78-7.1 2.24 8.35 2.24 8.35-7-5.85-11.21-4.82 1.19 9.65 1.19 9.65l11.73 14.2 23.58 9.12s30.71-4.74 33.52-10.54-6.5-12.68-6.5-12.68z" fill="#eba284"/><path d="m312.74 368-21.74-6.83s-15.37-8.12-25.65-13.64c-1.89-1-4.82-1.93-6-.77-1.8 1.74.71 8 4.09 12.3 5.57 7.18 11.76 7 11.77 9.66 0 4.63-18.75 12.62-34.09 7a53.32 53.32 0 0 1 -15.11-8.61c-4.72-4.08-8.18-8.9-14.23-9.31-1.66-.11-3.16-.21-3.94.69-3.13 3.63 8.19 20 21.82 32 7.51 6.59 43.68 10.56 47.31 10.54s22.71 7 22.71 7a50.48 50.48 0 0 0 13.06-40.03z" fill="#f5b493"/><path d="m381.66 232.87s47.86 3.83 62.06 33.71 44.82 147.18 22.41 177.81a42.32 42.32 0 0 1 -12.63 11.2 75 75 0 0 1 -23.5 6.28c-16 1.53-28.48-2.63-36.39-5.47-21.86-7.85-60.95-24.43-109.94-48.63q5.65-22.53 11.33-45.06l124.26 24.46-20.69-64c-26.48-23.17-32.35-59.55-16.91-90.3z" fill="#86ebf9"/><path d="m367.7 231.84a560.3 560.3 0 0 0 -16 134.08s25.1-22.32 26.42-28.12-11.15-24-8.48-25 14.8-2.19 15.15-8.52-3.11-71.37-3.11-71.37-8.3-1.91-13.98-1.07z" fill="#40c2d6"/><path d="m351.39 372.77 62.2 11.94s27.76 27.41 35.84 44.63 7-24.25-29.52-51.83a239.36 239.36 0 0 1 -6-35.27c-2.9-31.24 1.22-54.23-.7-54.51-1.49-.22-5.39 13.41-7.38 27.32a158.8 158.8 0 0 0 3.17 60.53z" fill="#40c2d6"/><path d="m284.82 403-.82 5.7 13.74 6-.39 6.94-16.07-10z" fill="#40c2d6"/><path d="m197.12 360.69c-6.07 11.81-24.19 49.81-9.3 71.46 2.42 3.53 8.16 10.18 10.31 9.08 2.77-1.42-2.61-14.65-5-28.05-2.23-12.01-3.02-29.53 3.99-52.49z" fill="#40c2d6"/><path d="m148.94 206.23h-27.32a9.73 9.73 0 0 1 -9.72-9.72v-29.32a9.73 9.73 0 0 1 9.72-9.72h27.32a9.73 9.73 0 0 1 9.72 9.72v29.32a9.73 9.73 0 0 1 -9.72 9.72zm-27.32-40.91a1.88 1.88 0 0 0 -1.88 1.87v29.32a1.88 1.88 0 0 0 1.88 1.87h27.32a1.88 1.88 0 0 0 1.88-1.87v-29.32a1.88 1.88 0 0 0 -1.88-1.87z" fill="#fff"/><rect fill="#fff" height="189.36" rx="9.5" width="144.98" x="62.79" y="179.17"/><rect fill="#c6c6c6" height="173.67" rx="2.8" width="129.29" x="70.63" y="187.02"/><path d="m73.44 359.57a1.69 1.69 0 0 1 -1.69-1.68v-125h127.05v125a1.68 1.68 0 0 1 -1.68 1.68z" fill="#cc3745"/><ellipse cx="135.28" cy="232.87" fill="#e73f46" rx="63.52" ry="11.21"/><path d="m125.75 259.02h19.05v61.91h-19.05z" fill="#fff"/><path d="m125.75 259.02h19.05v61.91h-19.05z" fill="#fff" transform="matrix(0 1 -1 0 425.25 154.7)"/><rect fill="#fff" height="18.12" rx="3.05" width="11.72" x="116.53" y="362.02"/><rect fill="#fff" height="18.12" rx="3.05" width="11.72" x="139.08" y="362.02"/><rect fill="#cc3745" height="24.84" rx="2.83" width="7.66" x="118.47" y="351.28"/><rect fill="#cc3745" height="24.84" rx="2.83" width="7.66" x="141.11" y="351.28"/><path d="m141.61 460.22c-1.85-15.91.88-27.52 6-35.55-10.25-16.76-6.48-63.46-6-68.83l8.93.79c-1.13 12.88-2.49 46.74 3.38 60.74 13.35-11.36 33.41-8.88 36 1.69 3.45 14.32-21 22.82-35.75 12.5a80.6 80.6 0 0 0 -3.74 28zm18-35.78c9.28 6.07 22.5.67 21.54-3.28-.23-.93-4.42-3.09-10.82-1.94a21.93 21.93 0 0 0 -10.71 5.22z" fill="#cc3745"/><path d="m55.09 251.15s26.49-1.62 27 5.2-16.9 7-16.9 7 17.63-1.25 18.12 6.11-19.1 7.36-19.1 7.36 15.8-1.44 15.55 4.66-16.65 6.11-16.65 6.11 14 1.43 12.61 6.46-22.28 7.9-25.34 2.69 2-8.8 2-8.8-7.47-5.74.61-10.76c0 0-7.35-8.44.37-12.75-.06 0-8.73-11.67 1.73-13.28z" fill="#f5b493"/><path d="m53.3 264.93a.5.5 0 0 1 0-1l17.52-1.08a.5.5 0 0 1 .06 1c-23.24 1.43-16.26 1.08-17.58 1.08z" fill="#2d1929"/><path d="m52.93 277.67a.5.5 0 0 1 0-1l17.89-.81a.48.48 0 0 1 .52.48.5.5 0 0 1 -.48.52c-23.7 1.07-16.58.81-17.93.81z" fill="#2d1929"/><path d="m52.32 288.44a.5.5 0 0 1 0-1l13.92-.5a.5.5 0 1 1 0 1c-18.41.66-12.87.5-13.92.5z" fill="#2d1929"/><path d="m312.91 169.45a61.56 61.56 0 0 0 31.27-4c-4.85 9.51-13.13 15-19.95 13.86a15.05 15.05 0 0 1 -9.47-5.53 12 12 0 0 1 -1.85-4.33z" fill="#fff"/><path d="m281.08 296.25a2 2 0 0 1 -2-2c-.42-32.56 10.82-57.53 29.34-65.15a34.16 34.16 0 0 1 12.3-2.51 2 2 0 0 1 .09 4 30.1 30.1 0 0 0 -10.87 2.21c-17 7-27.26 30.51-26.86 61.39a2 2 0 0 1 -2 2.06z" fill="#2d1929"/><path d="m368.24 357.84a2 2 0 0 1 -2-1.84c0-.48-3.8-48.83 10.71-91.34 6.7-19.65 4.44-27.87 1.36-31.31-3.74-4.16-10.11-2.8-10.17-2.78a2 2 0 0 1 -2.39-1.51 2 2 0 0 1 1.49-2.39c.35-.08 8.68-1.92 14 4 5.54 6.15 5.37 18-.53 35.3-14.23 41.71-10.55 89.25-10.51 89.73a2 2 0 0 1 -1.96 2.14z" fill="#2d1929"/><circle cx="370.4" cy="356.24" fill="#2d1929" r="18.08"/><path d="m370.4 367.22a11 11 0 1 1 11-11 11 11 0 0 1 -11 11z" fill="#c6c6c6"/></g></svg>