<svg xmlns="http://www.w3.org/2000/svg" version="1.1" xmlns:xlink="http://www.w3.org/1999/xlink" xmlns:svgjs="http://svgjs.com/svgjs" width="512" height="512" x="0" y="0" viewBox="0 0 512.002 512" style="enable-background:new 0 0 512 512" xml:space="preserve" class=""><g><path fill="#fecaa8" d="M193.031 504.012v-91.39a53.663 53.663 0 0 1 10.215-31.5l26.664-36.798a53.686 53.686 0 0 0 10.211-31.5v-137.52H87.551v328.708zm0 0" data-original="#fecaa8" class=""></path><path fill="#fecaa8" d="M214.695 125.504c-14.047 0-25.43 11.383-25.43 25.426v-27.043c0-14.043-11.382-25.426-25.425-25.426-14.047 0-25.43 11.383-25.43 25.426V92.78c0-14.043-11.387-25.43-25.43-25.43s-25.425 11.387-25.425 25.43v30.254c0-14.043-11.387-25.426-25.43-25.426s-25.426 11.383-25.426 25.426v188.36h50.856v-39.672h37.433a188.243 188.243 0 0 1 115.137 39.312V150.93c-.004-14.043-11.387-25.426-25.43-25.426zm0 0" data-original="#fecaa8" class=""></path><path fill="#ffdfc7" d="M61.184 262.422v-49.445c0-14.825-12.02-26.84-26.844-26.84-14.824 0-26.84 12.015-26.84 26.84v99.847a53.663 53.663 0 0 0 10.215 31.5l26.66 36.797a53.66 53.66 0 0 1 10.215 31.496v91.395h60.273V316.105c0-29.648-24.035-53.683-53.68-53.683zm0 0" data-original="#ffdfc7" class=""></path><path fill="#fecaa8" d="M318.969 504.012v-91.39a53.663 53.663 0 0 0-10.215-31.5l-26.664-36.798a53.686 53.686 0 0 1-10.211-31.5v-137.52h152.57v328.708zm0 0" data-original="#fecaa8" class=""></path><path fill="#fecaa8" d="M297.305 125.504c14.047 0 25.43 11.383 25.43 25.426v-27.043c0-14.043 11.382-25.426 25.425-25.426 14.047 0 25.43 11.383 25.43 25.426V92.78c0-14.043 11.387-25.43 25.43-25.43s25.425 11.387 25.425 25.43v30.254c0-14.043 11.387-25.426 25.43-25.426s25.426 11.383 25.426 25.426v188.36h-50.856v-39.672h-37.433a188.243 188.243 0 0 0-115.137 39.312V150.93c.004-14.043 11.387-25.426 25.43-25.426zm0 0" data-original="#fecaa8" class=""></path><path fill="#ffdfc7" d="M450.816 262.422v-49.445c0-14.825 12.02-26.84 26.844-26.84 14.824 0 26.84 12.015 26.84 26.84v99.847a53.663 53.663 0 0 1-10.215 31.5l-26.66 36.797a53.66 53.66 0 0 0-10.215 31.496v91.395h-60.273V316.105c0-29.648 24.035-53.683 53.68-53.683zm0 0" data-original="#ffdfc7" class=""></path><path fill="#cd0000" d="M380.8 232.664c0 68.926-55.874 124.8-124.8 124.8s-124.8-55.874-124.8-124.8c0-54.094 76.866-170.027 109.948-217.418 7.211-10.328 22.493-10.328 29.704 0C303.934 62.641 380.8 178.574 380.8 232.664zm0 0" data-original="#ff5555" class=""></path><path fill="#bf0b0b" d="M380.79 232.66c0 68.938-55.876 124.809-124.79 124.809-11.387 0-22.438-1.528-32.918-4.395 52.953-14.449 91.871-62.883 91.871-120.414 0-45.71-54.894-135.59-91.871-190.945a1456.613 1456.613 0 0 1 18.059-26.461c7.226-10.34 22.492-10.34 29.718 0C303.938 62.64 380.79 178.566 380.79 232.66zm0 0" data-original="#f72b2b" class=""></path><path d="M193.031 471.535c-4.14 0-7.5 3.36-7.5 7.5v24.977a7.5 7.5 0 1 0 15 0v-24.977a7.5 7.5 0 0 0-7.5-7.5zM482.805 179.023v-55.988c0-18.156-14.774-32.926-32.93-32.926a32.73 32.73 0 0 0-17.926 5.32v-2.648c0-18.156-14.773-32.926-32.93-32.926s-32.925 14.77-32.925 32.926v3.5a32.753 32.753 0 0 0-17.93-5.32c-5.844 0-11.45 1.52-16.379 4.355-5.555-9.3-11.508-18.96-17.875-28.988a7.494 7.494 0 0 0-10.351-2.312 7.497 7.497 0 0 0-2.313 10.347c59.555 93.828 72.055 137.875 72.055 158.301 0 64.68-52.621 117.3-117.297 117.3-35.863 0-69.29-16.097-91.703-44.16a7.496 7.496 0 0 0-10.54-1.179 7.5 7.5 0 0 0-1.183 10.54c15.602 19.53 35.934 33.91 58.719 42.07l-14.121 19.484c-7.617 10.508-11.64 22.922-11.64 35.898v31.133c0 4.14 3.359 7.5 7.5 7.5s7.5-3.36 7.5-7.5v-31.133c0-9.793 3.038-19.164 8.784-27.097l17.27-23.833c9.539 2.16 19.39 3.278 29.414 3.278 10.098 0 19.937-1.145 29.394-3.297l17.286 23.852c5.75 7.933 8.785 17.304 8.785 27.097v91.395a7.5 7.5 0 1 0 15 0v-91.395c0-12.976-4.024-25.39-11.64-35.898l-14.15-19.528c51.032-18.363 87.622-67.25 87.622-124.527 0-10.164-2.434-22.602-7.278-37.266.043-.32.07-.644.07-.98V92.781c0-9.886 8.044-17.93 17.93-17.93 9.883 0 17.926 8.044 17.926 17.93v124.281a7.5 7.5 0 1 0 15 0v-94.027c0-9.883 8.043-17.926 17.93-17.926s17.93 8.043 17.93 17.926v57.05c-14.149 4.247-24.489 17.384-24.489 32.892v42.402c-30.21 3.71-53.683 29.527-53.683 60.726v56.504a7.5 7.5 0 0 0 7.5 7.5c4.144 0 7.5-3.355 7.5-7.5v-56.504c0-25.464 20.718-46.183 46.183-46.183 4.14 0 7.5-3.36 7.5-7.5v-49.445c0-10.665 8.676-19.34 19.34-19.34s19.344 8.675 19.344 19.34v99.847c0 9.797-3.04 19.168-8.79 27.102l-26.663 36.793c-7.613 10.508-11.64 22.922-11.64 35.898v91.395a7.5 7.5 0 1 0 15 0v-91.395c0-9.793 3.038-19.164 8.788-27.097l26.664-36.793c7.614-10.508 11.64-22.922 11.64-35.903v-99.847c-.003-17.188-12.694-31.461-29.198-33.954zM339.39 108.262a17.77 17.77 0 0 1 8.773-2.301c9.887 0 17.926 8.043 17.926 17.926v34.886c-7.176-15.27-16.07-32.109-26.7-50.511zm0 0" fill="#000000" data-original="#000000" class=""></path><path d="M138.7 232.664c0-21.785 14.39-58.98 41.613-107.555 22.57-40.27 48.882-79.636 66.988-105.57C249.313 16.656 252.484 15 256 15s6.688 1.656 8.7 4.54a1579.636 1579.636 0 0 1 17.57 25.714 7.498 7.498 0 0 0 10.402 2.066 7.507 7.507 0 0 0 2.066-10.406A1610.004 1610.004 0 0 0 277 10.954C272.21 4.097 264.363 0 256 0s-16.21 4.098-21 10.953c-14.91 21.363-35.348 51.758-54.777 84.367a32.73 32.73 0 0 0-16.387-4.363 32.73 32.73 0 0 0-17.926 5.32v-3.496c0-18.16-14.773-32.93-32.93-32.93s-32.93 14.774-32.93 32.93v2.649a32.698 32.698 0 0 0-17.925-5.32c-18.156 0-32.93 14.769-32.93 32.925v55.988C12.691 181.516 0 195.79 0 212.977v99.847c0 12.98 4.023 25.395 11.64 35.903l26.665 36.793c5.746 7.933 8.785 17.3 8.785 27.097v91.395c0 4.14 3.36 7.5 7.5 7.5s7.5-3.36 7.5-7.5v-91.395c0-12.976-4.024-25.39-11.64-35.898l-26.665-36.793C18.04 331.992 15 322.62 15 312.824v-99.847c0-10.665 8.676-19.34 19.34-19.34 10.668 0 19.344 8.675 19.344 19.34v49.445a7.5 7.5 0 0 0 7.5 7.5c25.464 0 46.18 20.719 46.18 46.183v56.504a7.5 7.5 0 0 0 7.5 7.5c4.144 0 7.5-3.355 7.5-7.5v-56.504c0-31.199-23.47-57.015-53.68-60.726v-42.402c0-15.508-10.34-28.645-24.489-32.891v-57.05c0-9.884 8.043-17.927 17.93-17.927s17.926 8.043 17.926 17.926v94.027a7.5 7.5 0 1 0 15 0V92.782c0-9.887 8.043-17.93 17.93-17.93s17.925 8.043 17.925 17.93v101.64c0 .371.04.73.09 1.09-4.851 14.66-7.297 27.074-7.297 37.152 0 17.375 3.328 34.281 9.89 50.25a7.498 7.498 0 0 0 6.938 4.652c.95 0 1.914-.183 2.848-.566a7.5 7.5 0 0 0 4.086-9.79c-5.813-14.148-8.762-29.136-8.762-44.546zm7.21-108.777c0-9.883 8.04-17.926 17.926-17.926 3.137 0 6.14.812 8.797 2.312a913.792 913.792 0 0 0-5.406 9.504c-8.282 14.778-15.387 28.493-21.317 41.125zm0 0" fill="#000000" data-original="#000000" class=""></path></g></svg>