<svg xmlns="http://www.w3.org/2000/svg" version="1.1" xmlns:xlink="http://www.w3.org/1999/xlink" xmlns:svgjs="http://svgjs.com/svgjs" width="512" height="512" x="0" y="0" viewBox="0 0 512 512" style="enable-background:new 0 0 512 512" xml:space="preserve" class=""><g><path d="M325.345 288.18H307.54l-6.09.023v31.484a8489.16 8489.16 0 0 1 23.895-.073c8.647 0 15.684-7.05 15.684-15.717-.001-8.667-7.037-15.717-15.684-15.717zM168.395 291.699h25.32l-12.602-33.464zM319.562 258.084c6.192 0 11.23-5.048 11.23-11.253 0-6.206-5.037-11.255-11.23-11.255H301.45v22.539h6.033c5.008-.018 9.612-.031 12.079-.031z" fill="#bf0b0b" data-original="#000000" class=""></path><path d="M279.388 11.552c-12.057-15.402-34.719-15.402-46.776 0C182.553 75.497 69.545 229.268 69.545 314.28 69.545 423.477 153.024 512 256 512s186.454-88.523 186.454-197.72c0-85.012-113.007-238.783-163.066-302.728zm-74.351 310.211H156.97l-6.981 18.368a15.008 15.008 0 0 1-14.021 9.686c-1.774 0-3.578-.317-5.336-.988-7.741-2.955-11.627-11.639-8.679-19.398l42.804-112.628c.044-.115.089-.23.136-.344 2.713-6.643 9.096-10.94 16.259-10.946h.016c7.157 0 13.538 4.284 16.261 10.918.056.136.11.273.162.411l42.415 112.633c2.925 7.767-.987 16.44-8.738 19.371-7.752 2.931-16.405-.991-19.33-8.757zm75.679 103.475h-51.432c-8.284 0-15-6.73-15-15.032s6.716-15.032 15-15.032h51.432c8.284 0 15 6.73 15 15.032s-6.716 15.032-15 15.032zm44.629-75.561c-8.274 0-38.523.134-38.828.136h-.066a14.983 14.983 0 0 1-10.583-4.379 15.05 15.05 0 0 1-4.417-10.653V220.544c0-8.302 6.716-15.032 15-15.032h33.112c22.734 0 41.229 18.536 41.229 41.319 0 8.027-2.303 15.52-6.271 21.868 10.079 8.404 16.508 21.061 16.508 35.197-.001 25.244-20.494 45.781-45.684 45.781z" fill="#bf0b0b" data-original="#000000" class=""></path></g></svg>