<svg xmlns="http://www.w3.org/2000/svg" version="1.1" xmlns:xlink="http://www.w3.org/1999/xlink" xmlns:svgjs="http://svgjs.com/svgjs" width="512" height="512" x="0" y="0" viewBox="0 0 510.907 510.907" style="enable-background:new 0 0 512 512" xml:space="preserve" class=""><g><path d="M254.454 166.221c-13.438 0-24.371 10.933-24.371 24.371v62.963c0 13.438 10.933 24.371 24.371 24.371s24.371-10.933 24.371-24.371v-62.963c0-13.439-10.933-24.371-24.371-24.371z" fill="#bf0b0b" data-original="#000000"></path><path d="M278.842 11.527c-12.057-15.369-34.719-15.369-46.776 0C182.007 75.336 68.999 228.778 68.999 313.609c0 108.965 83.479 197.298 186.454 197.298s186.455-88.333 186.455-197.298c0-84.831-113.007-238.273-163.066-302.082zm2.327 382.803h-10.41v11.021c0 8.284-6.716 15-15 15s-15-6.716-15-15V394.33h-11.021c-8.284 0-15-6.716-15-15s6.716-15 15-15h11.021v-10.411c0-8.284 6.716-15 15-15s15 6.716 15 15v10.411h10.41c8.284 0 15 6.716 15 15s-6.715 15-15 15zm27.656-140.775c0 29.98-24.391 54.371-54.371 54.371s-54.371-24.391-54.371-54.371v-62.963c0-29.98 24.391-54.371 54.371-54.371 29.981 0 54.371 24.391 54.371 54.371z" fill="#bf0b0b" data-original="#000000"></path></g></svg>