<svg xmlns="http://www.w3.org/2000/svg" version="1.1" xmlns:xlink="http://www.w3.org/1999/xlink" xmlns:svgjs="http://svgjs.com/svgjs" width="512" height="512" x="0" y="0" viewBox="0 0 582.464 582.464" style="enable-background:new 0 0 512 512" xml:space="preserve" class=""><g><path d="M342.839 531.462a7.028 7.028 0 0 0-5.878-1.556 178.623 178.623 0 0 1-31.351 2.766h-28.642c-10.489 0-21.035-.922-31.351-2.766-2.075-.346-4.265.231-5.878 1.556-1.614 1.383-2.593 3.4-2.593 5.532v9.451c0 19.882 16.136 36.019 36.019 36.019h.461a7.207 7.207 0 0 0 7.204-7.204v-6.051h20.862v6.051a7.207 7.207 0 0 0 7.204 7.204h.461c19.882 0 36.019-16.136 36.019-36.019v-9.451a7.276 7.276 0 0 0-2.537-5.532zM386.926 434.759c-4.437 0-8.068-3.631-8.068-8.068s3.631-8.068 8.068-8.068h37.056a123.392 123.392 0 0 0 11.872-26.913h-19.248c-4.437 0-8.068-3.631-8.068-8.068s3.631-8.068 8.068-8.068H439.6c1.037-6.57 1.614-13.255 1.614-19.997v-6.858h-54.287c-4.437 0-8.068-3.631-8.068-8.068s3.631-8.068 8.068-8.068h54.23V305.67h-24.55c-4.437 0-8.068-3.631-8.068-8.068s3.631-8.068 8.068-8.068h24.55v-26.913h-54.23c-4.437 0-8.068-3.631-8.068-8.068s3.631-8.068 8.068-8.068h54.23v-26.913h-24.55c-4.437 0-8.068-3.631-8.068-8.068s3.631-8.068 8.068-8.068h24.55V176.52h-54.23c-4.437 0-8.068-3.631-8.068-8.068s3.631-8.068 8.068-8.068h54.23V105.52h-299.79v249.998c0 33.079 12.909 64.2 36.249 87.54 23.398 23.398 54.46 36.249 87.54 36.249h52.097c33.079 0 64.2-12.909 87.54-36.249a130.525 130.525 0 0 0 7.665-8.356h-25.53v.057zm-95.665-31.408c-38.612 0-70.078-31.408-70.078-70.078 0-15.733 10.834-41.09 32.215-75.437 15.502-24.896 30.774-45.239 31.408-46.104 1.498-2.017 3.919-3.227 6.455-3.227s4.899 1.21 6.455 3.227c.634.864 15.906 21.208 31.408 46.104 21.381 34.347 32.215 59.704 32.215 75.437 0 38.669-31.466 70.078-70.078 70.078z" fill="#ffffff" data-original="#000000" class=""></path><path d="M237.319 333.331c0 29.737 24.204 53.941 53.941 53.941s53.941-24.204 53.941-53.941c0-22.994-34.463-75.898-53.941-103.042-19.42 27.086-53.941 80.047-53.941 103.042z" fill="#ffffff" data-original="#000000" class=""></path><path d="M453.719 37.978H335.866C332.408 16.482 313.736 0 291.261 0c-22.476 0-41.148 16.482-44.605 37.978H128.803c-24.896 0-45.124 20.228-45.124 45.124v270.745c0 51.636 20.113 100.161 56.592 136.64s85.004 56.592 136.64 56.592h28.642c51.636 0 100.161-20.113 136.64-56.592 36.48-36.48 56.592-85.004 56.592-136.64V83.102c.058-24.896-20.227-45.124-45.066-45.124zm-162.458-.864c4.438 0 8.068 3.631 8.068 8.068s-3.631 8.068-8.068 8.068-8.068-3.631-8.068-8.068c0-4.438 3.63-8.068 8.068-8.068zm166.031 318.462c0 37.402-14.58 72.556-40.975 98.95-26.394 26.394-61.606 40.975-98.95 40.975H265.27c-37.402 0-72.556-14.58-98.95-40.975-26.452-26.452-40.975-61.606-40.975-98.95V97.51c0-4.438 3.631-8.068 8.068-8.068h315.926c4.437 0 8.068 3.631 8.068 8.068v258.066z" fill="#ffffff" data-original="#000000" class=""></path></g></svg>