<svg xmlns="http://www.w3.org/2000/svg" version="1.1" xmlns:xlink="http://www.w3.org/1999/xlink" xmlns:svgjs="http://svgjs.com/svgjs" width="512" height="512" x="0" y="0" viewBox="0 0 510.907 510.907" style="enable-background:new 0 0 512 512" xml:space="preserve" class=""><g><path d="M242.877 233.01h25.32l-12.602-33.393z" fill="#bf0b0b" data-original="#000000" class=""></path><path d="M278.842 11.527c-12.057-15.369-34.719-15.369-46.776 0C182.007 75.336 68.999 228.778 68.999 313.609c0 108.965 83.479 197.298 186.455 197.298s186.455-88.333 186.455-197.298c-.001-84.831-113.008-238.273-163.067-302.082zm2.327 366.803h-10.41v11.021c0 8.284-6.716 15-15 15s-15-6.716-15-15V378.33h-11.021c-8.284 0-15-6.716-15-15s6.716-15 15-15h11.021v-10.411c0-8.284 6.716-15 15-15s15 6.716 15 15v10.411h10.41c8.284 0 15 6.716 15 15s-6.715 15-15 15zm24.581-88.296c-7.753 2.927-16.405-.989-19.33-8.738l-6.901-18.286h-48.067l-6.981 18.329c-2.279 5.984-7.977 9.665-14.02 9.665-1.774 0-3.578-.316-5.336-.986-7.741-2.948-11.627-11.614-8.679-19.357l42.804-112.388a17.524 17.524 0 0 1 16.395-11.267h.016a17.52 17.52 0 0 1 16.423 11.305l42.415 112.393c2.924 7.75-.988 16.405-8.739 19.33z" fill="#bf0b0b" data-original="#000000" class=""></path></g></svg>