<svg xmlns="http://www.w3.org/2000/svg" version="1.1" xmlns:xlink="http://www.w3.org/1999/xlink" xmlns:svgjs="http://svgjs.com/svgjs" width="512" height="512" x="0" y="0" viewBox="0 0 510.907 510.907" style="enable-background:new 0 0 512 512" xml:space="preserve" class=""><g><path d="M251.777 200.537c6.192 0 11.23-5.038 11.23-11.23s-5.038-11.23-11.23-11.23h-18.112v22.49h6.095c4.984-.017 9.56-.03 12.017-.03zM257.56 230.567h-17.608l-6.287.023v31.417a8489.16 8489.16 0 0 1 23.895-.073c8.647 0 15.683-7.035 15.683-15.684 0-8.647-7.036-15.683-15.683-15.683z" fill="#bf0b0b" data-original="#000000"></path><path d="M278.842 11.527c-12.057-15.369-34.719-15.369-46.776 0C182.007 75.336 68.999 228.778 68.999 313.609c0 108.965 83.479 197.298 186.454 197.298s186.454-88.333 186.454-197.298c.001-84.831-113.006-238.273-163.065-302.082zm1.327 366.803h-51.432c-8.284 0-15-6.716-15-15s6.716-15 15-15h51.432c8.284 0 15 6.716 15 15s-6.715 15-15 15zm-22.609-86.395c-8.275 0-38.524.134-38.828.136h-.067a14.997 14.997 0 0 1-15-15V163.078c0-8.284 6.716-15 15-15h33.112c22.734 0 41.23 18.495 41.23 41.23a40.972 40.972 0 0 1-6.271 21.821c10.079 8.387 16.508 21.017 16.508 35.123-.001 25.189-20.494 45.683-45.684 45.683z" fill="#bf0b0b" data-original="#000000"></path></g></svg>