<svg height="512" viewBox="0 0 32 32" width="512" xmlns="http://www.w3.org/2000/svg"><g id="Eye_plus" data-name="Eye plus"><path d="m14.0015 29q-.4131 0-.8179-.0332a8.6849 8.6849 0 0 1 -7.0791-4.8368 9.2681 9.2681 0 0 1 .4033-9.14l7.4937-11.99 7.4936 11.99a9.2681 9.2681 0 0 1 .4033 9.14 8.6829 8.6829 0 0 1 -7.0766 4.8369c-.27.0224-.5445.0331-.8203.0331z" fill="#ff5e57"/><path d="m20 21v-3h-3v-4h3v-3h4v3h3v4h-3v3z" fill="#db2626"/><g fill="#232835"><path d="m22.3452 23.1a1 1 0 0 0 -1.3354.4658 7.6868 7.6868 0 0 1 -6.3155 4.4073 9.8855 9.8855 0 0 1 -1.4824 0 7.5966 7.5966 0 0 1 -6.2637-4.29 8.2814 8.2814 0 0 1 .36-8.1621l6.6418-10.6343 2.9021 4.6433a1 1 0 0 0 1.6962-1.06l-3.75-6a1.04 1.04 0 0 0 -1.6962 0l-7.49 11.9912a10.2671 10.2671 0 0 0 -.4515 10.1188 9.6854 9.6854 0 0 0 7.8936 5.3867c.2949.0225.59.0332.896.0332s.6006-.0107.9009-.0332a9.67 9.67 0 0 0 7.9594-5.5322 1 1 0 0 0 -.4653-1.3345z"/><path d="m9.95 20a1 1 0 0 0 -2 0 6.0066 6.0066 0 0 0 6 6 1 1 0 1 0 0-2 4.0042 4.0042 0 0 1 -4-4z"/><path d="m26.95 13h-2v-2a1 1 0 0 0 -1-1h-4a1 1 0 0 0 -1 1v2h-2a1 1 0 0 0 -1 1v4a1 1 0 0 0 1 1h2v2a1 1 0 0 0 1 1h4a1 1 0 0 0 1-1v-2h2a1 1 0 0 0 1-1v-4a1 1 0 0 0 -1-1zm-1 4h-2a1 1 0 0 0 -1 1v2h-2v-2a1 1 0 0 0 -1-1h-2v-2h2a1 1 0 0 0 1-1v-2h2v2a1 1 0 0 0 1 1h2z"/></g></g></svg>