<svg xmlns="http://www.w3.org/2000/svg" version="1.1" xmlns:xlink="http://www.w3.org/1999/xlink" xmlns:svgjs="http://svgjs.com/svgjs" width="512" height="512" x="0" y="0" viewBox="0 0 488.45 488.45" style="enable-background:new 0 0 512 512" xml:space="preserve" class=""><g><path d="M402.275 331.65c-52.2-19.9-83.4-40.3-83.4-40.3l-40.2 127.2-5.5 17.2-18-51c41.4-57.7-3.1-60.5-10.9-60.5h-.4c-7.7.1-52.2 2.8-10.8 60.5l-18 51-5.5-17.2-40.2-127.2s-31.2 20.4-83.4 40.3c-57.5 20.9-53.9 68.2-55.1 156.8h426.7c-1.4-88.6 2.1-135.9-55.3-156.8zM142.375 228.25c-5.2 11.1-14 24.9-28.1 31.8-4.6 2.3-3.6 9.2 1.5 10 15.4 2.4 37.5-.3 58.1-15.9l.3.2c52.3 30.9 120.8 23.8 165.8-21.1 53.4-53.4 53.4-139.9 0-193.2-53.4-53.4-139.8-53.4-193.2 0-51.4 51.4-53.3 133.4-5.8 187.1l1.4 1.1zm106.7-176c12.3.1 22.1 10.1 22 22.6-.1 12.3-10.1 22.4-22.1 22.3-12.4-.1-22.4-10.2-22.3-22.6.1-12.5 10.1-22.3 22.4-22.3zm-43.3 59.8c.3-2.4 1.8-4 5-4.6 1.7-.3 3.4-.4 5.1-.4h42.2c5.2 0 8.3 2.5 8.4 7.7.1 4.3-.6 8.7-1.4 13-2.8 15.9-5.8 31.8-8.7 47.7-1 5.3-2 10.5-2.7 15.8-.3 2.5.1 5.2.7 7.7.8 3.3 3.3 5.2 6.7 4.8 2.8-.3 5.6-1.3 8.3-2.3 2.2-.8 4.1-2.3 6.3-3.2 3.2-1.3 5.9 1 5.1 4.3-.5 1.9-1.7 3.9-3.1 5.3-8.1 8.2-17.8 13.1-29.4 13.2-5.4.1-10.9-.1-16.2-.9-8.9-1.3-20.2-12.3-18.6-24.1 1.1-8 2.3-16.1 3.7-24 2.4-13.9 4.9-27.8 7.3-41.7.2-.9.2-1.8.2-2.7 0-5.8-1.8-7.9-7.6-8.7-2.5-.3-5-.5-7.3-1.4-3-1-4.2-3.3-4-5.5z" fill="#bf0b0b" data-original="#000000" class=""></path></g></svg>