<svg xmlns="http://www.w3.org/2000/svg" version="1.1" xmlns:xlink="http://www.w3.org/1999/xlink" xmlns:svgjs="http://svgjs.com/svgjs" width="512" height="512" x="0" y="0" viewBox="0 0 512.007 512.007" style="enable-background:new 0 0 512 512" xml:space="preserve" class=""><g><path d="M497.004 482.007h-15v-15c0-8.291-6.709-15-15-15h-90c-8.291 0-15 6.709-15 15v15h-212v-15c0-8.291-6.709-15-15-15h-90c-8.291 0-15 6.709-15 15v15h-15c-8.291 0-15 6.709-15 15s6.709 15 15 15h482c8.291 0 15-6.709 15-15s-6.709-15-15-15zM482.004 226.007v-15h15c6.46 0 12.188-4.131 14.224-10.254a14.975 14.975 0 0 0-5.229-16.743l-241-181a14.94 14.94 0 0 0-17.988 0l-241 181a14.973 14.973 0 0 0-5.229 16.743 14.984 14.984 0 0 0 14.224 10.254h15v15c0 8.291 6.709 15 15 15h422c8.289 0 14.998-6.709 14.998-15zm-256-135h15v-15c0-8.291 6.709-15 15-15s15 6.709 15 15v15h15c8.291 0 15 6.709 15 15s-6.709 15-15 15h-15v15c0 8.291-6.709 15-15 15s-15-6.709-15-15v-15h-15c-8.291 0-15-6.709-15-15s6.709-15 15-15zM60.004 271.007h60v151h-60zM392.004 271.007h60v151h-60zM226.004 377.007c0 16.542 13.458 30 30 30s30-13.458 30-30c0-9.618-14.08-32.601-30-53.249-15.919 20.647-30 43.632-30 53.249z" fill="#f32e2e" data-original="#000000"></path><path d="M256.004 271.007h-106v153.579c12.765 4.527 22.903 14.655 27.43 27.421h157.141c4.526-12.766 14.664-22.894 27.43-27.421V271.007H256.004zm0 166c-33.084 0-60-26.916-60-60 0-13.622 8.241-32.069 25.193-56.396 11.561-16.589 22.97-29.848 23.45-30.404a15 15 0 0 1 22.712 0c.48.556 11.89 13.815 23.45 30.404 16.953 24.327 25.193 42.774 25.193 56.396.002 33.084-26.914 60-59.998 60z" fill="#f32e2e" data-original="#000000"></path></g></svg>