<svg xmlns="http://www.w3.org/2000/svg" version="1.1" xmlns:xlink="http://www.w3.org/1999/xlink" xmlns:svgjs="http://svgjs.com/svgjs" width="512" height="512" x="0" y="0" viewBox="0 0 48 48" style="enable-background:new 0 0 512 512" xml:space="preserve" class=""><g><g data-name="Blood Donation"><path d="M29 26a10.011 10.011 0 0 0 10-10C39 8.636 30.045.591 29.665.252a1 1 0 0 0-1.33 0C27.955.592 19 8.636 19 16a10.011 10.011 0 0 0 10 10zm-4-11h3v-3h2v3h3v2h-3v3h-2v-3h-3z" fill="#ffffff" data-original="#000000"></path><rect width="7" height="24" y="23" rx="1" fill="#ffffff" data-original="#000000"></rect><path d="M46.37 30.86a3.963 3.963 0 0 0-3.57-.59l-8.82 2.78A6.523 6.523 0 0 1 27.5 39H18a1 1 0 0 1 0-2h9.5a4.5 4.5 0 0 0 0-9H17.4a11.132 11.132 0 0 0-7.64-3H9v20.33l10.29 2.29a16.32 16.32 0 0 0 3.47.38 16.005 16.005 0 0 0 7.66-1.95l15.5-8.46a3.999 3.999 0 0 0 .45-6.73z" fill="#ffffff" data-original="#000000"></path></g></g></svg>