<svg xmlns="http://www.w3.org/2000/svg" version="1.1" xmlns:xlink="http://www.w3.org/1999/xlink" xmlns:svgjs="http://svgjs.com/svgjs" width="512" height="512" x="0" y="0" viewBox="0 0 91.203 91.203" style="enable-background:new 0 0 512 512" xml:space="preserve" class=""><g><path d="M32.847 12.755C32.847 5.711 38.558 0 45.603 0c7.043 0 12.754 5.711 12.754 12.755 0 7.044-5.711 12.755-12.754 12.755-7.045 0-12.756-5.711-12.756-12.755zM51.732 34.2a13.815 13.815 0 0 1 2.623-7.474 16.278 16.278 0 0 0-3.34-.346H40.192c-1.141 0-2.256.119-3.33.343a13.838 13.838 0 0 1 2.633 8.045 13.84 13.84 0 0 1 6.697-1.718c1.968 0 3.841.41 5.54 1.15zm2.16 1.144c3.705 2.323 6.303 6.254 6.776 10.817a11.69 11.69 0 0 0 4.966 1.112c6.491 0 11.752-5.261 11.752-11.751 0-6.491-5.261-11.752-11.752-11.752-6.429.001-11.644 5.168-11.742 11.574zm-7.7 24.063c6.491 0 11.752-5.263 11.752-11.753 0-6.489-5.262-11.751-11.752-11.751-6.49 0-11.754 5.262-11.754 11.751 0 6.491 5.265 11.753 11.754 11.753zm4.985.8h-9.972c-8.297 0-15.047 6.751-15.047 15.047V87.45l.031.19.84.264c7.918 2.473 14.797 3.299 20.459 3.299 11.059 0 17.469-3.152 17.864-3.354l.785-.398h.084V75.254c.003-8.296-6.747-15.047-15.044-15.047zm19.444-12.131h-9.895a14.485 14.485 0 0 1-4.47 10.088c7.375 2.193 12.771 9.031 12.771 17.109v3.759c9.77-.359 15.4-3.128 15.771-3.313l.785-.398h.084V63.122c0-8.296-6.75-15.046-15.046-15.046zm-45.049-.803c2.299 0 4.438-.67 6.25-1.813a14.544 14.544 0 0 1 5.467-9.276c.012-.22.033-.438.033-.66 0-6.491-5.262-11.752-11.75-11.752-6.492 0-11.752 5.261-11.752 11.752-.001 6.489 5.26 11.749 11.752 11.749zm10.553 10.891a14.493 14.493 0 0 1-4.467-10.031c-.367-.027-.73-.057-1.104-.057h-9.971c-8.297 0-15.047 6.75-15.047 15.046v12.196l.031.189.84.264c6.352 1.984 12.021 2.897 16.945 3.186v-3.684c.002-8.078 5.397-14.916 12.773-17.109z" fill="#ffffff" data-original="#000000" class=""></path></g></svg>