<?xml version="1.0" encoding="UTF-8"?>
<svg xmlns="http://www.w3.org/2000/svg" xmlns:xlink="http://www.w3.org/1999/xlink" width="512" height="512" viewBox="0 0 60 60" version="1.1"><!-- Generator: Sketch 51.3 (57544) - http://www.bohemiancoding.com/sketch --><title>034 - Life Insurance</title><desc>Created with Sketch.</desc><defs/><g id="Page-1" stroke="none" stroke-width="1" fill="none" fill-rule="evenodd"><g id="034---Life-Insurance" fill-rule="nonzero"><path d="M53,13.19 C53,21.31 47.89,24.56 44.48,27.81 C41.28,30.86 31.33,38.92 30.12,39.9 C30.0886507,39.9215447 30.0585986,39.9449186 30.03,39.97 L30,40 L29.97,39.97 C29.9414014,39.9449186 29.9113493,39.9215447 29.88,39.9 C28.67,38.92 18.72,30.86 15.52,27.81 C12.11,24.56 7,21.31 7,13.19 C7,5.07 12.11,1 18.93,1 C19.19,1 19.44,1.01 19.68,1.02 C24.0055733,1.2612022 27.9035246,3.70875298 30,7.5 C32.0964754,3.70875298 35.9944267,1.2612022 40.32,1.02 C40.56,1.01 40.81,1 41.07,1 C47.89,1 53,5.06 53,13.19 Z" id="Shape" fill="#F44335"/><path d="M53,13.19 C53,21.31 47.89,24.56 44.48,27.81 C41.28,30.86 31.33,38.92 30.12,39.9 C30.0886507,39.9215447 30.0585986,39.9449186 30.03,39.97 L30,40 L29.97,39.97 C29.9414014,39.9449186 29.9113493,39.9215447 29.88,39.9 C29.67,39.73 29.18,39.33 28.5,38.78 C31.65,36.22 38.85,30.32 41.48,27.81 C44.89,24.56 50,21.31 50,13.19 C50,5.68 45.64,1.64 39.6,1.08 C39.83,1.05 40.07,1.03 40.32,1.02 C40.56,1.01 40.81,1 41.07,1 C47.89,1 53,5.06 53,13.19 Z" id="Shape" fill="#C81E1E"/><path d="M14.316,41.738 L9.748,37.169 C8.7681854,36.1891673 7.98418578,35.0314951 7.438,33.758 L5.2,28.539 C4.85513073,27.7350887 4.06476152,27.213681 3.19,27.213 C2.44646337,27.2140738 1.75430881,27.5925026 1.35209231,28.2178583 C0.949875811,28.843214 0.892597968,29.6299831 1.2,30.307 L5.119,38.929 C5.59961649,39.9858913 6.26620497,40.9478381 7.087,41.769 L14.316,49 L24,49 L24,46.139 C24.0326513,43.9976631 23.3373789,41.908673 22.028,40.214 C21.2961932,39.248342 20.2994007,38.5162954 19.159,38.107 C16.9390106,37.1700159 14.8927151,35.8657688 13.106,34.249 C11.6792055,33.057914 9.57863147,33.1551709 8.268,34.473" id="Shape" fill="#FFE0B2"/><path d="M45.682,41.525 L50.251,36.956 C51.2310335,35.9759653 52.0150546,34.817922 52.561,33.544 L54.8,28.326 C55.1447258,27.5224222 55.9346019,27.0010803 56.809,27 C57.5527142,27.0007345 58.2451811,27.379026 58.6476364,28.0044387 C59.0500917,28.6298514 59.1074749,29.4168216 58.8,30.094 L54.881,38.716 C54.4003835,39.7728913 53.733795,40.7348381 52.913,41.556 L45.681,48.787 L36,48.787 L36,45.926 C35.9673596,43.7843586 36.6626187,41.6950557 37.972,40 C38.7043774,39.0349215 39.7009814,38.3030133 40.841,37.893 C43.0608414,36.9567463 45.1068717,35.6527908 46.893,34.036 C48.3201199,32.8447808 50.4210317,32.9420332 51.732,34.26" id="Shape" fill="#FFE0B2"/><path d="M45.682,41.525 L50.251,36.956 C51.2310335,35.9759653 52.0150546,34.817922 52.561,33.544 L54.8,28.326 C55.1447258,27.5224222 55.9346019,27.0010803 56.809,27 C57.5527142,27.0007345 58.2451811,27.379026 58.6476364,28.0044387 C59.0500917,28.6298514 59.1074749,29.4168216 58.8,30.094 L54.881,38.716 C54.4003835,39.7728913 53.733795,40.7348381 52.913,41.556 L45.681,48.787 L36,48.787 L36,45.926 C35.9673596,43.7843586 36.6626187,41.6950557 37.972,40 C38.7043774,39.0349215 39.7009814,38.3030133 40.841,37.893 C43.0608414,36.9567463 45.1068717,35.6527908 46.893,34.036 C48.3201199,32.8447808 50.4210317,32.9420332 51.732,34.26" id="Shape" fill="#FFE0B2"/><path d="M59,29.18 C59.0009441,29.4943373 58.9326608,29.8050265 58.8,30.09 L54.88,38.72 C54.3946928,39.7747154 53.7278947,40.7359879 52.91,41.56 L45.68,48.79 L42.68,48.79 L49.91,41.56 C50.7278947,40.7359879 51.3946928,39.7747154 51.88,38.72 L55.8,30.09 C56.1931926,29.2414748 55.9953823,28.2362755 55.31,27.6 C55.7130471,27.2126974 56.2510331,26.9975031 56.81,27 C58.016289,26.9983391 58.9961401,27.9737161 59,29.18 Z" id="Shape" fill="#DFC49C"/><rect id="Rectangle-path" fill="#283593" x="34" y="49" width="13" height="10" rx="1"/><rect id="Rectangle-path" fill="#3F51B5" x="34" y="49" width="10" height="10" rx="1"/><rect id="Rectangle-path" fill="#3F51B5" x="12.999" y="49" width="13" height="10" rx="1"/><path d="M24,50 L14.317,50 C14.0518052,49.9999434 13.7974927,49.8945494 13.61,49.707 L6.379,42.476 C5.47222588,41.5708311 4.7367119,40.509062 4.208,39.342 L0.289,30.721 C-0.170979487,29.6790349 -0.0401362855,28.4708233 0.632242236,27.5514868 C1.30462076,26.6321504 2.4163843,26.1413582 3.54874229,26.2639868 C4.68110027,26.3866155 5.66202057,27.1040349 6.122,28.146 L8.285,33.2 C9.97209876,32.0843933 12.1899728,32.2016788 13.75,33.489 C15.4318729,35.0350529 17.3688382,36.278094 19.475,37.163 C20.7993346,37.6308906 21.9578989,38.475916 22.808,39.594 C24.2568987,41.4654837 25.0295064,43.7723804 25,46.139 L25,49 C25,49.5522847 24.5522847,50 24,50 Z M14.731,48 L23,48 L23,46.139 C23.0301832,44.2251802 22.412398,42.3573757 21.247,40.839 C20.6352544,40.0239652 19.7996453,39.4044679 18.842,39.056 C16.4918904,38.0996763 14.3313425,36.731555 12.462,35.016 C11.5268309,34.2454194 10.1833362,34.2230209 9.223,34.962 C9.5836624,35.5013381 9.99666328,36.0037722 10.456,36.462 L15.024,41.031 C15.2839566,41.2820745 15.3882126,41.6538779 15.2966972,42.0035073 C15.2051817,42.3531368 14.9321368,42.6261817 14.5825073,42.7176972 C14.2328779,42.8092126 13.8610745,42.7049566 13.61,42.445 L9.042,37.876 C7.97024427,36.8075456 7.11402167,35.5429028 6.52,34.151 L4.283,28.934 C4.09651136,28.4964366 3.66664654,28.2126156 3.191,28.213 C2.78682049,28.2131465 2.41039441,28.4186059 2.19163714,28.7584681 C1.97287988,29.0983304 1.94175327,29.5260467 2.109,29.894 L6.028,38.515 C6.45820511,39.463331 7.05613326,40.3261769 7.793,41.062 L14.731,48 Z" id="Shape" fill="#000000"/><path d="M25,60 L14,60 C12.8954305,60 12,59.1045695 12,58 L12,50 C12,48.8954305 12.8954305,48 14,48 L25,48 C26.1045695,48 27,48.8954305 27,50 L27,58 C27,59.1045695 26.1045695,60 25,60 Z M14,50 L14,58 L25,58 L25,50 L14,50 Z" id="Shape" fill="#000000"/><path d="M22,55 L21,55 C20.4477153,55 20,54.5522847 20,54 C20,53.4477153 20.4477153,53 21,53 L22,53 C22.5522847,53 23,53.4477153 23,54 C23,54.5522847 22.5522847,55 22,55 Z" id="Shape" fill="#000000"/><path d="M45.683,50 L36,50 C35.4477153,50 35,49.5522847 35,49 L35,46.139 C34.9693601,43.7706727 35.7420289,41.4618312 37.192,39.589 C38.0421011,38.470916 39.2006654,37.6258906 40.525,37.158 C42.6311618,36.273094 44.5681271,35.0300529 46.25,33.484 C47.8101972,32.1941509 50.0291245,32.0724769 51.721,33.184 L53.879,28.149 C54.3269714,27.0885465 55.3118616,26.351974 56.4556875,26.2219655 C57.5995134,26.0919571 58.7245846,26.5887091 59.3991191,27.5215774 C60.0736536,28.4544456 60.1928642,29.6785112 59.711,30.724 L55.792,39.345 C55.2632881,40.512062 54.5277741,41.5738311 53.621,42.479 L46.39,49.707 C46.2025073,49.8945494 45.9481948,49.9999434 45.683,50 Z M37,48 L45.269,48 L52.207,41.062 C52.9438667,40.3261769 53.5417949,39.463331 53.972,38.515 L57.891,29.894 C58.0582467,29.5260467 58.0271201,29.0983304 57.8083629,28.7584681 C57.5896056,28.4186059 57.2131795,28.2131465 56.809,28.213 C56.3336729,28.2127095 55.9040073,28.4960055 55.717,28.933 L53.48,34.151 C52.8859783,35.5429028 52.0297557,36.8075456 50.958,37.876 L46.39,42.445 C45.9976211,42.8239722 45.3739152,42.8185524 44.9881814,42.4328186 C44.6024476,42.0470848 44.5970278,41.4233789 44.976,41.031 L49.544,36.462 C50.0062252,36.0011563 50.4212837,35.4953142 50.783,34.952 C49.8194192,34.2124035 48.4721478,34.2385601 47.538,35.015 C45.6684757,36.730809 43.5075524,38.0989535 41.157,39.055 C40.2012635,39.4044671 39.3675264,40.0238642 38.757,40.838 C37.5899578,42.356123 36.9707349,44.2243646 37,46.139 L37,48 Z" id="Shape" fill="#000000"/><path d="M46,60 L35,60 C33.8954305,60 33,59.1045695 33,58 L33,50 C33,48.8954305 33.8954305,48 35,48 L46,48 C47.1045695,48 48,48.8954305 48,50 L48,58 C48,59.1045695 47.1045695,60 46,60 Z M35,50 L35,58 L46,58 L46,50 L35,50 Z" id="Shape" fill="#000000"/><path d="M39,55 L38,55 C37.4477153,55 37,54.5522847 37,54 C37,53.4477153 37.4477153,53 38,53 L39,53 C39.5522847,53 40,53.4477153 40,54 C40,54.5522847 39.5522847,55 39,55 Z" id="Shape" fill="#000000"/><path d="M30,41 C29.7714482,40.9999396 29.5498133,40.9215909 29.372,40.778 C28.918,40.412 18.227,31.778 14.828,28.536 C14.363,28.093 13.866,27.649 13.354,27.193 C10.078,24.271 6,20.633 6,13.188 C6,5.053 10.953,-1.77635684e-15 18.926,-1.77635684e-15 C23.3155357,-0.026532566 27.4446932,2.07980755 30,5.649 C32.5553068,2.07980755 36.6844643,-0.026532566 41.074,-3.27727212e-15 C49.047,-1.77635684e-15 54,5.053 54,13.188 C54,20.633 49.922,24.271 46.646,27.193 C46.134,27.649 45.637,28.093 45.172,28.536 C41.772,31.777 31.082,40.412 30.628,40.778 C30.4501867,40.9215909 30.2285518,40.9999396 30,41 Z M18.926,2 C12.084,2 8,6.182 8,13.188 C8,19.737 11.552,22.905 14.686,25.7 C15.214,26.172 15.728,26.63 16.209,27.089 C19.083,29.83 27.61,36.775 30,38.713 C32.39,36.775 40.918,29.83 43.791,27.089 C44.272,26.63 44.791,26.172 45.314,25.7 C48.448,22.905 52,19.737 52,13.188 C52,6.182 47.916,2 41.074,2 C36.8459183,1.98660719 32.9441819,4.27066259 30.886,7.964 C30.6964201,8.27134017 30.3611074,8.45847919 30,8.45847919 C29.6388926,8.45847919 29.3035799,8.27134017 29.114,7.964 C27.0558181,4.27066259 23.1540817,1.98660719 18.926,2 Z" id="Shape" fill="#000000"/><path d="M39,27 L38.96,27 C38.5036067,26.9817883 38.1175557,26.6566493 38.022,26.21 L35.922,16.424 L34.967,20.244 C34.8554274,20.6874514 34.4572701,20.9987305 34,21 L28.721,21 L27.949,23.316 C27.7993246,23.7234976 27.4130965,23.9958481 26.979,24 C26.5405998,23.9905677 26.1594865,23.6966239 26.039,23.275 L24.977,19.558 L22.958,26.287 C22.8222199,26.7218537 22.4133446,27.0129729 21.958,26.999 C21.5016067,26.9807883 21.1155557,26.6556493 21.02,26.209 L18.92,16.423 L17.965,20.243 C17.8539985,20.6861288 17.4568142,20.9977024 17,21 L2,21 C1.44771525,21 1,20.5522847 1,20 C1,19.4477153 1.44771525,19 2,19 L16.219,19 L18.03,11.757 C18.135125,11.300774 18.5491187,10.983253 19.017,11 C19.4823821,11.0078876 19.880788,11.335816 19.978,11.791 L22.162,21.981 L24.042,15.713 C24.1521113,15.2758065 24.5557261,14.9772823 25.006,15 C25.4499819,15.0028638 25.8389117,15.2981247 25.961,15.725 L27.075,19.625 C27.22753,19.2479334 27.5932519,19.0008239 28,19 L33.219,19 L35.03,11.757 C35.1429983,11.3056777 35.5523266,10.991908 36.0175088,11.0000272 C36.482691,11.0081464 36.8808203,11.3360093 36.978,11.791 L39.162,21.981 L41.042,15.713 C41.1687875,15.2898167 41.5582318,14.9999693 42,15 L42.006,15 C42.4499819,15.0028638 42.8389117,15.2981247 42.961,15.725 L44.075,19.625 C44.22753,19.2479334 44.5932519,19.0008239 45,19 L58,19 C58.5522847,19 59,19.4477153 59,20 C59,20.5522847 58.5522847,21 58,21 L45.721,21 L44.949,23.316 C44.7960487,23.720973 44.4118185,23.9919147 43.979,24 C43.5405998,23.9905677 43.1594865,23.6966239 43.039,23.275 L41.977,19.558 L39.958,26.287 C39.8312125,26.7101833 39.4417682,27.0000307 39,27 Z" id="Shape" fill="#000000"/></g></g></svg>
