<svg xmlns="http://www.w3.org/2000/svg" version="1.1" xmlns:xlink="http://www.w3.org/1999/xlink" xmlns:svgjs="http://svgjs.com/svgjs" width="512" height="512" x="0" y="0" viewBox="0 0 58 56" style="enable-background:new 0 0 512 512" xml:space="preserve" class=""><g><g fill="#000" fill-rule="nonzero"><path d="M13 56h11v-8H13v8Zm7-5h1a1 1 0 0 1 0 2h-1a1 1 0 0 1 0-2ZM22 46v-1.86a8.464 8.464 0 0 0-1.75-5.3 5.172 5.172 0 0 0-2.41-1.78 21.366 21.366 0 0 1-6.38-4.05 2.6 2.6 0 0 0-3.24-.05c.36.542.775 1.045 1.24 1.5l4.56 4.57a1 1 0 0 1 0 1.41.978.978 0 0 1-1.41 0l-4.57-4.56a11.986 11.986 0 0 1-2.52-3.73l-2.24-5.22a1.183 1.183 0 0 0-2.087-.174c-.219.34-.25.766-.083 1.134l3.92 8.63a8.572 8.572 0 0 0 1.76 2.54L13.73 46H22ZM34 48v8h11v-8H34Zm4 5h-1a1 1 0 0 1 0-2h1a1 1 0 0 1 0 2ZM55.81 26.21c-.475 0-.904.283-1.09.72l-2.24 5.22a11.986 11.986 0 0 1-2.52 3.73l-4.57 4.56a.978.978 0 0 1-1.41 0 1 1 0 0 1 0-1.41l4.56-4.57a9.4 9.4 0 0 0 1.24-1.51 2.6 2.6 0 0 0-3.24.06 21.366 21.366 0 0 1-6.38 4.05c-.961.343-1.8.962-2.41 1.78a8.464 8.464 0 0 0-1.75 5.3V46h8.27l6.94-6.94a8.572 8.572 0 0 0 1.76-2.54l3.92-8.63a1.189 1.189 0 0 0-1.08-1.68ZM43.95 21.32c-.156.402-.539.67-.97.68a.993.993 0 0 1-.94-.73l-1.06-3.71-2.02 6.73c-.13.421-.52.709-.96.71h-.04a1 1 0 0 1-.94-.79l-2.09-9.79-.96 3.82A1 1 0 0 1 33 19h-5.28l-.77 2.32a1.054 1.054 0 0 1-.97.68.993.993 0 0 1-.94-.73l-1.06-3.71-2.02 6.73c-.141.43-.547.719-1 .71a1 1 0 0 1-.94-.79l-2.09-9.79-.96 3.82A1 1 0 0 1 16 19H9.27a25.186 25.186 0 0 0 4.42 4.7c.52.47 1.04.93 1.52 1.39 2.87 2.74 11.4 9.68 13.79 11.62 2.39-1.94 10.92-8.88 13.79-11.62.48-.46 1-.92 1.52-1.39a24.879 24.879 0 0 0 4.42-4.7h-4.01l-.77 2.32Z" fill="#ffffff" data-original="#000000" class=""></path><path d="M17.03 9.76a.987.987 0 0 1 .99-.76c.463.013.858.338.96.79l2.18 10.19 1.88-6.27a.96.96 0 0 1 .97-.71.993.993 0 0 1 .95.73l1.11 3.89c.158-.374.524-.618.93-.62h5.22l1.81-7.24c.027-.11.07-.214.13-.31.194-.284.516-.453.86-.45.463.013.858.338.96.79l2.18 10.19 1.88-6.27c.13-.421.52-.709.96-.71h.01a.993.993 0 0 1 .95.73l1.11 3.89c.158-.374.524-.618.93-.62h5.84A13.937 13.937 0 0 0 51 11.19C51 4.18 46.92 0 40.07 0a11.607 11.607 0 0 0-10.18 5.96 1.042 1.042 0 0 1-1.78 0A11.607 11.607 0 0 0 17.93 0C11.08 0 7 4.18 7 11.19A13.937 13.937 0 0 0 8.16 17h7.06l1.81-7.24ZM1 17a1 1 0 0 0 0 2h8.27c-.429-.632-.8-1.302-1.11-2H1ZM57 17h-7.16c-.31.698-.681 1.368-1.11 2H57a1 1 0 0 0 0-2Z" fill="#ffffff" data-original="#000000" class=""></path></g></g></svg>