<svg xmlns="http://www.w3.org/2000/svg" version="1.1" xmlns:xlink="http://www.w3.org/1999/xlink" xmlns:svgjs="http://svgjs.com/svgjs" width="512" height="512" x="0" y="0" viewBox="0 0 24 24" style="enable-background:new 0 0 512 512" xml:space="preserve" class=""><g><g fill="#000"><path d="M11.25 19a.75.75 0 0 1 .75-.75h6a.25.25 0 0 0 .25-.25V6a.25.25 0 0 0-.25-.25h-6a.75.75 0 0 1 0-1.5h6c.967 0 1.75.783 1.75 1.75v12A1.75 1.75 0 0 1 18 19.75h-6a.75.75 0 0 1-.75-.75z" fill="#ffffff" data-original="#000000" class=""></path><path d="M15.612 13.115a1 1 0 0 1-1 1H9.756c-.023.356-.052.71-.086 1.065l-.03.306a.718.718 0 0 1-1.025.578 16.844 16.844 0 0 1-4.885-3.539l-.03-.031a.721.721 0 0 1 0-.998l.03-.031a16.843 16.843 0 0 1 4.885-3.539.718.718 0 0 1 1.025.578l.03.305c.034.355.063.71.086 1.066h4.856a1 1 0 0 1 1 1z" fill="#ffffff" data-original="#000000" class=""></path></g></g></svg>