<svg xmlns="http://www.w3.org/2000/svg" version="1.1" xmlns:xlink="http://www.w3.org/1999/xlink" xmlns:svgjs="http://svgjs.com/svgjs" width="512" height="512" x="0" y="0" viewBox="0 0 512 512" style="enable-background:new 0 0 512 512" xml:space="preserve" class=""><g transform="matrix(-1,-1.2246467991473532e-16,1.2246467991473532e-16,-1,512.0003662109375,512)"><path d="m480.971 239.029-90.51-90.509a24 24 0 0 0-33.942 0 24 24 0 0 0 0 33.941L406.059 232H144a24 24 0 0 0-24 24 24 24 0 0 0 24 24h262.059l-49.54 49.539a24 24 0 0 0 33.942 33.941l90.51-90.51a24 24 0 0 0 0-33.941z" fill="#ffffff" data-original="#000000" class=""></path><path d="M304 392a24 24 0 0 0-24 24v24H72V72h208v24a24 24 0 0 0 48 0V64a40 40 0 0 0-40-40H64a40 40 0 0 0-40 40v384a40 40 0 0 0 40 40h224a40 40 0 0 0 40-40v-32a24 24 0 0 0-24-24z" fill="#ffffff" data-original="#000000" class=""></path></g></svg>