<svg xmlns="http://www.w3.org/2000/svg" version="1.1" xmlns:xlink="http://www.w3.org/1999/xlink" xmlns:svgjs="http://svgjs.com/svgjs" width="512" height="512" x="0" y="0" viewBox="0 0 128 128" style="enable-background:new 0 0 512 512" xml:space="preserve" class=""><g><path fill="#bf0b0b" d="M105.68 77.646 64 117.75l-41.68-40.1C5.009 60.563.647 35.6 18.232 17.969 31.113 5.043 52.078 9.611 64 22.377c11.921-12.766 32.887-17.334 45.768-4.408 17.585 17.631 13.223 42.594-4.088 59.677z" data-original="#f5502f" class=""></path><g fill="#102a3f"><path d="M114.543 66.458a1.748 1.748 0 0 0-2.418.527 55.115 55.115 0 0 1-7.658 9.4L64 115.321l-9.669-9.3a1.75 1.75 0 1 0-2.426 2.522l10.882 10.47a1.752 1.752 0 0 0 2.426 0l41.7-40.12a58.6 58.6 0 0 0 8.161-10.015 1.749 1.749 0 0 0-.531-2.42zM111.007 16.734A28 28 0 0 0 90.24 8.505c-9.4.152-19.077 4.372-26.24 11.369a40.8 40.8 0 0 0-8.626-6.434 1.75 1.75 0 1 0-1.709 3.054 37.254 37.254 0 0 1 9.056 7.077 1.8 1.8 0 0 0 2.558 0C71.906 16.475 81.259 12.151 90.3 12a24.478 24.478 0 0 1 18.231 7.2c10.685 10.712 13.545 25.119 7.85 39.526a1.751 1.751 0 0 0 3.256 1.287c6.227-15.759 3.084-31.536-8.63-43.279zM23.55 76.4c-9.362-9.237-14.756-20.912-14.8-32.03-.037-9.394 3.67-18.1 10.722-25.165 6.359-6.381 15.567-8.664 25.26-6.265a1.75 1.75 0 1 0 .842-3.4c-10.916-2.7-21.333-.081-28.581 7.191C9.269 24.477 5.209 34.038 5.25 44.384 5.3 56.427 11.072 69 21.106 78.907l19.523 18.784a1.75 1.75 0 0 0 2.428-2.522zM47.568 99.511a1.749 1.749 0 0 0-2.425 2.522l2.777 2.673a1.75 1.75 0 0 0 2.426-2.523z" fill="#102a3f" data-original="#102a3f"></path><path d="m82.5 94.055 4.536-4.364a1.75 1.75 0 0 0-2.436-2.522l-4.536 4.364a1.75 1.75 0 0 0 2.436 2.522z" fill="#102a3f" data-original="#102a3f"></path></g></g></svg>