<svg clip-rule="evenodd" fill-rule="evenodd" height="512" stroke-linejoin="round" stroke-miterlimit="2" viewBox="0 0 32 32" width="512" xmlns="http://www.w3.org/2000/svg"><path d="m16.684 19.732c-.383.353-.973.353-1.356 0 0 0-2.571-2.372-2.571-2.372l-9.049 8.347c.4.191.841.293 1.292.293h22.012c.452 0 .893-.102 1.292-.293l-9.049-8.347zm-14.293-12.212c-.254.447-.391.957-.391 1.48v14c0 .451.102.892.293 1.292l9.036-8.335zm27.329.188-8.99 8.292 8.99 8.292c.191-.4.292-.841.292-1.292v-14c0-.451-.101-.892-.292-1.292zm-25.809-1.503 12.103 11.424 12.29-11.336c-.399-.191-.84-.293-1.292-.293h-22.012c-.376 0-.745.071-1.089.205z"/></svg>