<svg id="Layer_1" enable-background="new 0 0 512 512" height="512" viewBox="0 0 512 512" width="512" xmlns="http://www.w3.org/2000/svg"><g><g><path d="m271.344 8c7.423 0 13.73 5.43 14.833 12.77l6.302 41.924c27.186 5.099 52.399 15.786 74.402 30.831l34.112-25.197c5.971-4.41 14.27-3.79 19.519 1.459l21.7 21.7c5.249 5.249 5.869 13.548 1.459 19.519l-25.197 34.112c15.045 22.002 25.732 47.215 30.831 74.402l41.924 6.302c7.341 1.104 12.77 7.41 12.77 14.834v30.689c0 7.423-5.429 13.73-12.77 14.833l-41.924 6.302c-5.099 27.186-15.786 52.399-30.831 74.402l25.197 34.112c4.41 5.971 3.79 14.27-1.459 19.519l-21.7 21.7c-5.249 5.249-13.548 5.869-19.519 1.459l-47.652-35.417c-4.914-9.217-11.527-17.384-19.419-24.099 43.198-26.322 72.044-73.869 72.044-128.155 0-82.824-67.142-149.966-149.966-149.966s-149.966 67.141-149.966 149.965c0 54.286 28.845 101.833 72.044 128.155-7.892 6.715-14.505 14.882-19.419 24.099l-47.652 35.417c-5.971 4.41-14.27 3.79-19.519-1.459l-21.7-21.7c-5.249-5.249-5.869-13.548-1.459-19.519l25.197-34.112c-15.045-22.003-25.732-47.216-30.831-74.402l-41.925-6.302c-7.341-1.103-12.77-7.409-12.77-14.833v-30.689c0-7.423 5.429-13.73 12.77-14.834l41.925-6.302c5.099-27.186 15.786-52.399 30.831-74.402l-25.197-34.112c-4.41-5.971-3.79-14.27 1.459-19.519l21.7-21.7c5.249-5.249 13.548-5.869 19.519-1.459l34.112 25.197c22.003-15.045 47.216-25.732 74.402-30.831l6.302-41.924c1.103-7.339 7.409-12.769 14.833-12.769z" fill="#ff4755"/><path d="m168.307 280.241s-17.14-29.932-10.17-68.398c9.784-53.997 95.975-106.819 135.222-45.948 0 0 85.738-13.789 52.057 117.304z" fill="#365e7d"/><path d="m363.007 504h-214.014v-56.986c0-45.576 36.947-82.523 82.523-82.523h48.968c45.576 0 82.523 36.947 82.523 82.523z" fill="#8bcaff"/><path d="m148.993 486h214.014v18h-214.014z" fill="#6cc4ff"/><path d="m189.023 297.514v-26.843c-.759-.078-1.529-.118-2.309-.118-12.334 0-22.333 9.999-22.333 22.333s9.999 22.333 22.333 22.333c1.56 0 3.083-.161 4.553-.466-1.461-5.501-2.244-11.278-2.244-17.239z" fill="#f4b184"/><path d="m325.286 270.552c-.78 0-1.55.04-2.31.118v26.843c0 5.96-.783 11.737-2.244 17.238 1.47.305 2.993.466 4.553.466 12.334 0 22.333-9.999 22.333-22.333.001-12.333-9.997-22.332-22.332-22.332z" fill="#f4b184"/><path d="m189.023 297.1c-.759.078-1.529.119-2.309.119-9.131 0-16.977-5.483-20.439-13.333-1.214 2.754-1.894 5.797-1.894 9 0 12.334 9.999 22.333 22.333 22.333 1.56 0 3.083-.161 4.553-.466-1.461-5.501-2.244-11.278-2.244-17.238z" fill="#eaa678"/><path d="m325.287 297.218c-.78 0-1.55-.04-2.309-.119v.415c0 5.96-.783 11.737-2.244 17.238 1.47.305 2.993.466 4.553.466 12.334 0 22.333-9.999 22.333-22.333 0-3.203-.679-6.246-1.894-9-3.462 7.851-11.308 13.333-20.439 13.333z" fill="#eaa678"/><path d="m268.412 394.858h-24.829l-11.793-30.367h48.415z" fill="#ea2f4a"/><path d="m243.583 394.858h24.829l11.44 62.699-23.852 24.098-23.857-24.098z" fill="#ff4755"/><path d="m252.446 460.065-17.53-17.707-2.773 15.199 23.857 24.098 23.852-24.097-2.773-15.198-17.526 17.706c-1.956 1.975-5.15 1.976-7.107-.001z" fill="#fc2b3a"/><path d="m284.055 200.739c-27.548 36.566-95.032 44.741-95.032 44.741v52.034c0 36.99 29.987 66.977 66.977 66.977s66.977-29.987 66.977-66.977v-50.864s-25.444-10.292-38.922-45.911z" fill="#ffc89f"/><path d="m256 346.491c-36.99 0-66.977-29.986-66.977-66.977v18c0 36.99 29.987 66.977 66.977 66.977s66.977-29.986 66.977-66.977v-18c0 36.991-29.986 66.977-66.977 66.977z" fill="#f7bc94"/><g><g fill="#fc2b3a"><path d="m405.966 274c0-3.033-.101-6.041-.278-9.029-2.982 50.524-30.965 94.323-71.765 119.184 3.868 3.291 7.423 6.935 10.627 10.876 37.233-27.286 61.416-71.331 61.416-121.031z"/><path d="m106.312 264.97c-.177 2.989-.278 5.998-.278 9.031 0 49.699 24.183 93.744 61.416 121.031 3.204-3.941 6.76-7.585 10.627-10.876-40.801-24.862-68.783-68.662-71.765-119.186z"/></g></g></g><g><path d="m223.481 299.53c4.151 0 7.515-3.364 7.515-7.515v-15.045c0-4.151-3.364-7.515-7.515-7.515s-7.515 3.364-7.515 7.515v15.045c.001 4.151 3.365 7.515 7.515 7.515z"/><path d="m288.518 299.53c4.151 0 7.515-3.364 7.515-7.515v-15.045c0-4.151-3.364-7.515-7.515-7.515s-7.515 3.364-7.515 7.515v15.045c0 4.151 3.364 7.515 7.515 7.515z"/><path d="m256 333.992c13.028 0 19.727-7.829 21.632-12.454.516-1.048.827-2.197.827-3.434 0-4.158-3.37-7.528-7.528-7.528-3.265 0-6.042 2.08-7.085 4.986-.293.568-2.044 3.4-7.846 3.4s-7.554-2.833-7.846-3.4c-1.043-2.906-3.82-4.986-7.085-4.986-4.158 0-7.528 3.37-7.528 7.528 0 1.237.311 2.386.827 3.434 1.905 4.625 8.604 12.454 21.632 12.454z"/><path d="m492.807 218.332-36.796-5.53c-5.184-24.163-14.598-46.88-28.044-67.672l22.116-29.942c6.681-9.047 5.758-21.384-2.193-29.335l-21.744-21.744c-7.953-7.95-20.289-8.874-29.336-2.192l-29.941 22.116c-20.792-13.446-43.51-22.86-67.672-28.044l-5.53-36.796c-1.671-11.122-11.047-19.193-22.293-19.193h-30.749c-11.246 0-20.621 8.071-22.294 19.193l-5.531 36.795c-24.161 5.184-46.879 14.598-67.672 28.044l-29.941-22.116c-9.045-6.681-21.383-5.759-29.336 2.194l-21.741 21.742c-7.952 7.951-8.875 20.288-2.193 29.336l22.116 29.941c-13.446 20.793-22.86 43.51-28.044 67.672l-36.797 5.53c-11.121 1.673-19.192 11.049-19.192 22.295v30.749c0 11.246 8.071 20.621 19.192 22.294l36.797 5.53c5.184 24.161 14.598 46.88 28.044 67.673l-22.116 29.941c-6.681 9.047-5.758 21.384 2.193 29.334l21.743 21.745c7.988 7.987 20.342 8.844 29.353 2.179l27.902-20.738c-1.191 5.837-1.837 11.871-1.837 18.055v57.098c0 4.151 3.364 7.515 7.515 7.515h214.432c4.151 0 7.515-3.364 7.515-7.515v-57.098c0-6.184-.646-12.217-1.837-18.055l27.92 20.751c9.002 6.656 21.353 5.788 29.335-2.193l21.743-21.744c7.952-7.951 8.875-20.288 2.193-29.336l-22.117-29.942c4.517-6.994 8.621-14.289 12.236-21.748 1.81-3.735.25-8.23-3.485-10.039-3.737-1.811-8.229-.249-10.039 3.485-4.068 8.395-8.808 16.567-14.088 24.289-1.805 2.641-1.741 6.134.16 8.707l25.246 34.177c2.227 3.017 1.921 7.129-.731 9.779l-21.744 21.745c-2.651 2.652-6.762 2.956-9.76.744l-46.489-34.553c-3.651-6.516-8.086-12.531-13.179-17.925 19.126-13.334 35.199-30.834 46.823-51.078 13.646-23.765 20.859-50.893 20.859-78.452 0-86.997-70.777-157.774-157.774-157.774s-157.779 70.777-157.779 157.774c0 18.372 3.131 36.374 9.305 53.503 1.407 3.906 5.714 5.929 9.617 4.522 3.904-1.407 5.929-5.713 4.522-9.617-5.584-15.491-8.415-31.777-8.415-48.407 0-78.709 64.035-142.745 142.745-142.745s142.745 64.035 142.745 142.744c0 24.936-6.522 49.477-18.863 70.968-11.117 19.36-26.732 35.944-45.35 48.24-10.519-7.889-22.799-13.551-36.149-16.241 12.682-8.785 22.523-21.386 27.84-36.138 16.112-.427 29.09-13.658 29.09-29.87 0-3.619-.647-7.089-1.831-10.302 12.507-50.214 9.293-86.169-9.586-106.87-15.66-17.171-37.177-18.371-46.753-17.934-22.26-30.517-60.094-35.65-97.676-12.778-3.545 2.159-4.67 6.781-2.513 10.327 2.16 3.545 6.783 4.667 10.327 2.513 25.061-15.252 59.192-20.139 79.834 11.879 1.606 2.489 4.549 3.802 7.481 3.351.232-.037 23.573-3.389 38.294 12.88 13.681 15.119 16.587 43.23 8.588 81.743-3.247-2.077-6.919-3.542-10.855-4.236v-16.898c0-3.028-1.862-5.779-4.655-6.949-.925-.388-22.776-9.851-34.831-41.71-1.86-5.429-9.727-6.553-13.03-1.862-25.325 33.615-89.478 41.812-90.12 41.89-3.773.457-6.611 3.66-6.611 7.46v18.069c-3.864.681-7.472 2.104-10.675 4.121-4.173-11.02-9.594-31.197-5.362-54.552 2.269-12.523 9.455-25.817 20.233-37.433 2.823-3.043 2.645-7.798-.397-10.62-3.044-2.824-7.798-2.644-10.62.397-12.704 13.694-21.229 29.666-24.004 44.977-5.972 32.959 4.446 59.864 9.057 69.662-1.871 3.902-2.921 8.27-2.921 12.878 0 16.213 12.978 29.443 29.09 29.87 5.317 14.752 15.158 27.353 27.84 36.138-13.349 2.691-25.629 8.352-36.147 16.24-17.531-11.584-32.48-27.042-43.425-44.983-2.16-3.542-6.785-4.662-10.329-2.501-3.542 2.16-4.662 6.785-2.501 10.329 11.403 18.693 26.738 34.953 44.694 47.478-5.093 5.394-9.529 11.409-13.179 17.926l-46.473 34.54c-3.015 2.229-7.127 1.921-9.778-.73l-21.743-21.749c-2.651-2.65-2.957-6.762-.731-9.778l25.247-34.178c1.901-2.572 1.965-6.066.16-8.707-14.869-21.746-24.865-45.866-29.709-71.692-.589-3.144-3.105-5.57-6.268-6.046l-42.007-6.314c-3.706-.557-6.397-3.682-6.397-7.431v-30.749c0-3.75 2.691-6.875 6.397-7.432l42.007-6.314c3.163-.475 5.679-2.902 6.268-6.046 4.844-25.826 14.84-49.946 29.709-71.691 1.805-2.64 1.742-6.134-.16-8.706l-25.246-34.178c-2.227-3.017-1.921-7.129.731-9.78l21.742-21.743c2.651-2.65 6.763-2.958 9.779-.731l34.179 25.246c2.572 1.902 6.066 1.963 8.706.16 21.746-14.869 45.866-24.865 71.691-29.709 3.144-.589 5.57-3.105 6.046-6.268l6.315-42.006c.557-3.707 3.682-6.398 7.43-6.398h30.749c3.749 0 6.875 2.691 7.431 6.398l6.314 42.006c.476 3.163 2.902 5.679 6.046 6.268 25.826 4.844 49.946 14.84 71.691 29.709 2.64 1.802 6.133 1.744 8.706-.16l34.178-25.246c3.018-2.225 7.129-1.919 9.779.731l21.745 21.744c2.651 2.65 2.957 6.762.731 9.778l-25.247 34.179c-1.901 2.572-1.965 6.067-.16 8.706 14.869 21.745 24.865 45.865 29.709 71.691.589 3.144 3.105 5.571 6.268 6.046l42.006 6.314c3.707.557 6.398 3.683 6.398 7.432v30.749c0 3.749-2.691 6.874-6.398 7.431l-42.006 6.314c-3.163.476-5.679 2.902-6.268 6.046-1.327 7.074-3.078 14.144-5.206 21.012-1.228 3.965.99 8.174 4.954 9.402 3.971 1.232 8.174-.991 9.402-4.954 1.77-5.713 3.299-11.554 4.562-17.427l36.797-5.53c11.123-1.672 19.194-11.048 19.194-22.293v-30.749c0-11.246-8.071-20.622-19.193-22.294zm-162.184 79.264v-18.542c5.633 2.115 9.661 7.541 9.661 13.904 0 6.597-4.325 12.197-10.286 14.133.397-3.113.625-6.277.625-9.495zm-158.907-4.638c0-6.363 4.027-11.789 9.66-13.904v18.542c0 3.218.228 6.383.625 9.495-5.96-1.936-10.285-7.536-10.285-14.133zm24.69 4.638v-45.692c6.978-1.214 18.778-3.646 32.07-7.974 22.973-7.48 40.901-17.407 53.481-29.588 11.091 21.779 26.098 32.552 33.636 36.88v46.374c0 32.86-26.734 59.593-59.594 59.593s-59.593-26.733-59.593-59.593zm53.421 105.048h12.343l9.634 52.804-15.804 15.966-15.807-15.967zm-7.105-30.426h26.55l-5.979 15.396h-14.592zm-86.424 75.17c0-39.834 31.15-72.513 70.367-75l9.12 23.482-11.081 60.733c-.44 2.414.326 4.891 2.052 6.635l23.903 24.145c2.803 2.946 7.879 2.946 10.681 0l23.899-24.145c1.727-1.745 2.492-4.221 2.052-6.636l-11.081-60.732 9.12-23.482c39.219 2.485 70.372 35.165 70.372 75v49.583h-27.327v-39.361c0-4.151-3.364-7.515-7.515-7.515s-7.515 3.364-7.515 7.515v39.361h-114.69v-39.361c0-4.151-3.364-7.515-7.515-7.515s-7.515 3.364-7.515 7.515v39.361h-27.327z"/></g></g></svg>