<svg xmlns="http://www.w3.org/2000/svg" version="1.1" xmlns:xlink="http://www.w3.org/1999/xlink" xmlns:svgjs="http://svgjs.com/svgjs" width="512" height="512" x="0" y="0" viewBox="0 0 512.003 512.003" style="enable-background:new 0 0 512 512" xml:space="preserve" class=""><g><path d="m49.868 169.78-.072-.072c-3.906-3.904-10.236-3.904-14.142 0-3.905 3.905-3.905 10.237 0 14.142l.073.072c1.953 1.952 4.512 2.929 7.071 2.929s5.118-.977 7.071-2.929c3.904-3.904 3.904-10.236-.001-14.142zM351.947 29.869c-3.906-3.904-10.236-3.904-14.142 0-3.905 3.905-3.905 10.237 0 14.142l.06.059a9.9 9.9 0 0 0 7.027 2.914 9.993 9.993 0 0 0 7.085-2.944c3.904-3.905 3.875-10.267-.03-14.171z" fill="#ffffff" data-original="#000000" class=""></path><path d="M504.723 372.2c-2.045-5.13-7.86-7.632-12.992-5.584-5.13 2.046-7.63 7.862-5.584 12.991a81.96 81.96 0 0 1-5.245 71.594c-5.11-14.293-16.98-25.631-32.282-29.669l-2.681-.708a41.667 41.667 0 0 0 5.967-21.531v-8.33c0-23.12-18.809-41.929-41.929-41.929s-41.929 18.809-41.929 41.929v8.33a41.663 41.663 0 0 0 5.967 21.53l-2.682.708c-15.294 4.037-27.162 15.367-32.275 29.652-18.192-31.369-13.887-72.306 12.938-99.131 23.066-23.067 57.598-30.276 87.977-18.357 5.142 2.018 10.943-.517 12.96-5.658 2.017-5.141-.517-10.944-5.658-12.961-37.776-14.818-80.73-5.857-109.422 22.834a103.061 103.061 0 0 0-12.701 15.428l-91.239-48.786c13.333-30.867 13.333-66.16 0-97.027l91.274-48.805a101.947 101.947 0 0 0 12.667 15.446c19.265 19.265 44.878 29.874 72.122 29.874s52.857-10.609 72.122-29.874c39.768-39.768 39.768-104.476 0-144.244A101.934 101.934 0 0 0 372.146 7.301c-5.13 2.046-7.631 7.862-5.584 12.991 2.045 5.13 7.863 7.636 12.992 5.584a81.965 81.965 0 0 1 88.406 18.188c26.826 26.826 31.131 67.762 12.938 99.131-5.114-14.284-16.98-25.616-32.276-29.652l-2.681-.708a41.667 41.667 0 0 0 5.967-21.531v-8.33c0-23.12-18.809-41.929-41.929-41.929S368.05 59.854 368.05 82.974v8.33a41.663 41.663 0 0 0 5.967 21.53l-2.682.708c-15.296 4.037-27.165 15.369-32.277 29.657-12.376-21.32-14.696-47.496-5.417-71.153 2.017-5.141-.517-10.944-5.658-12.96-5.141-2.019-10.943.517-12.96 5.658-9.832 25.064-9.186 52.399.734 76.341l-91.267 48.801a122.071 122.071 0 0 0-16.245-20.113c-18.93-18.93-42.916-30.881-69.365-34.562-25.578-3.563-52.122 1.193-74.741 13.381-4.862 2.62-6.68 8.686-4.061 13.546 2.621 4.862 8.688 6.68 13.546 4.061 39.32-21.187 88.864-13.902 120.478 17.715 32.795 32.795 38.54 82.547 17.248 121.288-6.366-17.576-21.005-31.506-39.854-36.481l-7.539-1.989c6.016-8.433 9.57-18.736 9.57-29.86v-10.839c0-28.423-23.123-51.546-51.546-51.546s-51.547 23.123-51.547 51.546v10.839c0 11.125 3.554 21.427 9.57 29.86l-7.539 1.99c-18.82 4.967-33.443 18.861-39.824 36.399-16.225-29.774-17.048-66.727-.498-97.442 2.62-4.862.803-10.928-4.059-13.546-4.865-2.621-10.927-.803-13.546 4.059-12.19 22.621-16.942 49.165-13.385 74.742 3.681 26.449 15.632 50.436 34.562 69.366 23.783 23.783 55.024 35.675 86.265 35.675s62.481-11.892 86.265-35.675a121.945 121.945 0 0 0 16.244-20.112l91.213 48.772c-5.065 12.222-7.72 25.442-7.72 39.071 0 27.244 10.609 52.857 29.874 72.122 19.888 19.886 46.006 29.827 72.124 29.827 26.119 0 52.239-9.942 72.123-29.826a101.939 101.939 0 0 0 22.62-109.954zM388.05 82.977c0-12.093 9.838-21.93 21.93-21.93s21.93 9.838 21.93 21.93v8.33c0 12.092-9.838 21.929-21.93 21.929s-21.93-9.838-21.93-21.929v-8.33zm-31.74 78.114v-2.081c0-12.257 8.277-23 20.128-26.128l15.03-3.967a41.661 41.661 0 0 0 18.51 4.32 41.663 41.663 0 0 0 18.509-4.319l15.03 3.967c11.852 3.127 20.128 13.871 20.128 26.128v4.942c0 .02.003.039.003.058-14.902 12.947-33.737 20.031-53.671 20.031-20.091 0-39.068-7.196-54.026-20.338a9.882 9.882 0 0 0 .359-2.613zM90.434 226.038c0-17.395 14.151-31.547 31.548-31.547 17.395 0 31.547 14.151 31.547 31.547v10.839c0 17.395-14.151 31.548-31.547 31.548s-31.548-14.151-31.548-31.548v-10.839zm104.392 101.38c-.242.247-.479.497-.724.742-39.767 39.769-104.476 39.769-144.244.001-.248-.248-.48-.506-.725-.755v-2.431c0-17.314 11.693-32.494 28.435-36.912l20.671-5.456c7.111 3.707 15.182 5.816 23.741 5.816s16.629-2.109 23.74-5.816l20.671 5.455c16.741 4.418 28.435 19.597 28.435 36.912v2.444zm193.224 63.547c0-12.093 9.838-21.93 21.93-21.93s21.93 9.838 21.93 21.93v8.33c0 12.092-9.838 21.93-21.93 21.93s-21.93-9.838-21.93-21.93v-8.33zm-32.096 80.726c.225-.834.356-1.707.356-2.612v-2.08c0-12.256 8.277-23.001 20.128-26.129l15.029-3.967c5.587 2.761 11.87 4.32 18.511 4.32s12.924-1.559 18.511-4.32l15.028 3.967c11.852 3.127 20.128 13.871 20.128 26.129v4.941l.003.054c-30.822 26.737-76.987 26.637-107.694-.303z" fill="#ffffff" data-original="#000000" class=""></path><path d="M482.156 337.859c-3.905-3.904-10.235-3.904-14.141 0l-.06.06c-3.905 3.905-3.875 10.207.03 14.111a9.942 9.942 0 0 0 7.057 2.914c2.576 0 5.155-.983 7.115-2.943 3.904-3.904 3.904-10.236-.001-14.142z" fill="#ffffff" data-original="#000000" class=""></path></g></svg>