<svg xmlns="http://www.w3.org/2000/svg" version="1.1" xmlns:xlink="http://www.w3.org/1999/xlink" xmlns:svgjs="http://svgjs.com/svgjs" width="512" height="512" x="0" y="0" viewBox="0 0 228.619 236.258" style="enable-background:new 0 0 512 512" xml:space="preserve" class=""><g><path d="M122.206 125.036h90.224v58.466h-90.224z" fill="#ffffff" data-original="#000000" class=""></path><path d="M198.27 196.903h27.56V47.835c1.81-.855 2.79-1.849 2.79-3.001 0-6.111-27.446-14.354-61.302-14.354s-61.302 8.243-61.302 14.354c0 1.152.978 2.146 2.79 3V66.94l6.513-3.883a11.024 11.024 0 0 1 9.192-.96l4.186 1.433c.596.204 1.16.464 1.703.758l1.554-4.321 54.363 19.548-9.937 27.635L122.017 87.6l1.038-2.885c-.274-.054-.55-.094-.82-.168l-13.43 8.006v104.35h27.56v28.832h-15.688v10.176h93.28v-10.176H198.27zm1.414-116.221c3.15 0 5.725 2.576 5.725 5.725s-2.576 5.724-5.724 5.724h-14.717l4.117-11.45zm-80.879 40.954h97.025v65.267h-97.025z" fill="#ffffff" data-original="#000000" class=""></path><circle cx="55.387" cy="22.504" r="22.5" transform="rotate(-78.52 55.383 22.506)" fill="#ffffff" data-original="#000000" class=""></circle><path d="m173.67 86.53 2.791-7.77 5.905 2.12-2.79 7.77zM138.815 74.264l.596-1.658 27.841 10-.595 1.658zM137.316 78.433l.596-1.658 27.841 10-.595 1.658zM135.815 82.597l.596-1.658 23.201 8.334-.596 1.658zM84.518 99.71a7.998 7.998 0 0 0 7.239-.486l30.11-17.95.679.232a8 8 0 1 0 5.18-15.139l-4.184-1.431a8.016 8.016 0 0 0-6.687.697L92.344 80.246c-1.711-4.465-3.678-8.197-5.72-11.31-6.043-9.213-12.746-12.985-15.415-14.197a8.032 8.032 0 0 0-1.634-.538 7.795 7.795 0 0 0-.849-.226L30.86 46.31a7.7 7.7 0 0 0-2.951-.02c-2.605.262-6.406 1.409-10.584 5.194-6.483 5.875-12.19 16.64-16.964 31.995a8.001 8.001 0 0 0 5.301 10.026l7.306 2.233-4.787 23.646c-.076.376-.114.75-.134 1.121-.126.706-.203 1.43-.203 2.172v101.219c0 6.83 5.537 12.363 12.363 12.363 6.828 0 12.366-5.533 12.366-12.363v-91.689l4.634.939v90.75c0 6.83 5.537 12.363 12.364 12.363 6.828 0 12.365-5.533 12.365-12.363v-97.43L72.13 76.112c1.095 1.478 2.213 3.259 3.287 5.377 1.68 3.313 3.251 7.462 4.447 12.658a7.998 7.998 0 0 0 4.654 5.563z" fill="#ffffff" data-original="#000000" class=""></path></g></svg>