<svg xmlns="http://www.w3.org/2000/svg" version="1.1" xmlns:xlink="http://www.w3.org/1999/xlink" xmlns:svgjs="http://svgjs.com/svgjs" width="512" height="512" x="0" y="0" viewBox="0 0 512 512" style="enable-background:new 0 0 512 512" xml:space="preserve" class=""><g><path d="M136 452c-8.29 0-15 6.71-15 15v30c0 8.29 6.71 15 15 15s15-6.71 15-15v-30c0-8.29-6.71-15-15-15zM206.605 426.395c-5.859-5.86-15.351-5.86-21.21 0s-5.86 15.351 0 21.21l30 30A14.948 14.948 0 0 0 226 482c3.836 0 7.676-1.465 10.605-4.395 5.86-5.859 5.86-15.351 0-21.21zM65.395 426.395l-30 30c-5.86 5.859-5.86 15.351 0 21.21s15.351 5.86 21.21 0l30-30c5.86-5.859 5.86-15.351 0-21.21s-15.351-5.86-21.21 0zM376 60c8.29 0 15-6.71 15-15V15c0-8.29-6.71-15-15-15s-15 6.71-15 15v30c0 8.29 6.71 15 15 15zM446.605 86.605l30-30c5.86-5.859 5.86-15.351 0-21.21s-15.351-5.86-21.21 0l-30 30c-5.86 5.859-5.86 15.351 0 21.21s15.351 5.86 21.21 0zM305.395 86.605c5.859 5.86 15.351 5.86 21.21 0s5.86-15.351 0-21.21l-30-30c-5.859-5.86-15.351-5.86-21.21 0s-5.86 15.351 0 21.21zM301 256c0-16.57-13.43-30-30-30h-15c-8.285 0-15-6.715-15-15v-90h-75v-15c0-24.813-20.188-45-45-45s-45 20.188-45 45v15H15c-8.29 0-15 6.71-15 15v75c0 8.285 6.715 15 15 15h16c16.57 0 30 13.43 30 30s-13.43 30-30 30H15c-8.285 0-15 6.715-15 15v75c0 8.29 6.71 15 15 15h61c8.285 0 15-6.715 15-15v-15c0-16.57 13.43-30 30-30s30 13.43 30 30v15c0 8.29 6.71 15 15 15h75v-90c0-8.285 6.715-15 15-15h15c16.57 0 30-13.43 30-30zm0 0" fill="#bf0b0b" data-original="#000000" class=""></path><path d="M481 226h16c8.285 0 15-6.715 15-15v-75c0-8.29-6.71-15-15-15h-61c-8.285 0-15 6.715-15 15v15c0 16.57-13.43 30-30 30s-30-13.43-30-30v-15c0-8.29-6.71-15-15-15h-75v75c34.094 0 60 28.43 60 60 0 31.574-25.902 60-60 60v75h75v15c0 24.813 20.188 45 45 45s45-20.188 45-45v-15h61c8.29 0 15-6.71 15-15v-75c0-8.285-6.715-15-15-15h-16c-16.57 0-30-13.43-30-30s13.43-30 30-30zm0 0" fill="#bf0b0b" data-original="#000000" class=""></path></g></svg>