<svg xmlns="http://www.w3.org/2000/svg" version="1.1" xmlns:xlink="http://www.w3.org/1999/xlink" xmlns:svgjs="http://svgjs.com/svgjs" width="512" height="512" x="0" y="0" viewBox="0 0 24 24" style="enable-background:new 0 0 512 512" xml:space="preserve" class=""><g><path fill="#bf0b0b" fill-rule="evenodd" d="m14.714 3.678 6.962 13.929C22.685 19.625 21.217 22 18.96 22H5.04c-2.256 0-3.724-2.375-2.715-4.394L9.286 3.678c1.118-2.237 4.31-2.237 5.428 0zm-1.81.905a1.011 1.011 0 0 0-1.809 0L4.134 18.512a1.012 1.012 0 0 0 .905 1.464H18.96c.752 0 1.242-.791.905-1.464zM12 11.628c.698 0 1.264.566 1.264 1.265v4.047a1.265 1.265 0 1 1-2.528 0v-4.048c0-.698.566-1.264 1.264-1.264zm0-3.795a1.265 1.265 0 1 0 0 2.53 1.265 1.265 0 0 0 0-2.53z" clip-rule="evenodd" data-original="#000000" class=""></path></g></svg>