<svg xmlns="http://www.w3.org/2000/svg" version="1.1" xmlns:xlink="http://www.w3.org/1999/xlink" xmlns:svgjs="http://svgjs.com/svgjs" width="512" height="512" x="0" y="0" viewBox="0 0 512 512" style="enable-background:new 0 0 512 512" xml:space="preserve" class=""><g><path fill-rule="evenodd" d="M132.877 150.758h-22.65v20.981a5.126 5.126 0 0 1-5.116 5.116H88.679a5.127 5.127 0 0 1-5.117-5.116v-20.981h-22.65a3.845 3.845 0 0 0-3.837 3.837v70.494a5.319 5.319 0 0 0 5.309 5.309h69.022a5.319 5.319 0 0 0 5.309-5.309V154.6a3.845 3.845 0 0 0-3.838-3.837zM222.52 240.4h-22.65v20.981a5.126 5.126 0 0 1-5.117 5.116h-16.432a5.126 5.126 0 0 1-5.116-5.116V240.4h-22.65a3.845 3.845 0 0 0-3.838 3.837v70.494a5.32 5.32 0 0 0 5.31 5.309h69.021a5.319 5.319 0 0 0 5.309-5.309v-70.494a3.845 3.845 0 0 0-3.837-3.837zm-89.643 0h-22.65v20.981a5.126 5.126 0 0 1-5.116 5.116H88.679a5.126 5.126 0 0 1-5.117-5.116V240.4h-22.65a3.845 3.845 0 0 0-3.837 3.837v70.494a5.319 5.319 0 0 0 5.309 5.309h69.022a5.319 5.319 0 0 0 5.309-5.309v-70.494a3.845 3.845 0 0 0-3.838-3.837zm89.643 89.643h-22.65v20.98a5.127 5.127 0 0 1-5.117 5.117h-16.432a5.126 5.126 0 0 1-5.116-5.117v-20.98h-22.65a3.845 3.845 0 0 0-3.838 3.837v70.494a5.32 5.32 0 0 0 5.31 5.309h69.021a5.319 5.319 0 0 0 5.309-5.309V333.88a3.845 3.845 0 0 0-3.837-3.837zm-89.643 0h-22.65v20.98a5.126 5.126 0 0 1-5.116 5.117H88.679a5.127 5.127 0 0 1-5.117-5.117v-20.98h-22.65a3.845 3.845 0 0 0-3.837 3.837v70.494a5.319 5.319 0 0 0 5.309 5.309h69.022a5.319 5.319 0 0 0 5.309-5.309V333.88a3.845 3.845 0 0 0-3.838-3.837zm328.4 110.933-5.916 20.737a7.994 7.994 0 0 1-15.668-2.657A124.882 124.882 0 0 1 267.14 289.444a7.981 7.981 0 0 1 13.813 8 108.923 108.923 0 0 0 149.714 148.425 7.974 7.974 0 0 1 1.656-15.823l20.984.753a8 8 0 0 1 7.972 10.177zm-7.592-185.847a124.9 124.9 0 0 0-143.159-9.856 7.993 7.993 0 0 0-15.668-2.652l-5.916 20.736a8 8 0 0 0 7.972 10.177l20.984.754a7.974 7.974 0 0 0 1.666-15.822A108.918 108.918 0 0 1 469.27 406.89a7.981 7.981 0 0 0 13.813 8 124.832 124.832 0 0 0-29.396-159.761zM375.111 428.15a74.7 74.7 0 0 1-61.625-73.25v-52.3l61.625-26.41 61.626 26.41v52.3a74.7 74.7 0 0 1-61.626 73.25zm-1.709-49.6c12.961-12.961 25.774-26.067 38.674-39.087a9.685 9.685 0 0 0-13.743-13.651l-31.814 32.131L351.9 343.32a9.7 9.7 0 0 0-13.724 13.724l21.5 21.5a9.707 9.707 0 0 0 13.724.002zM208.635 34.959 12.007 112.914v296.769h30.151v-267h332.954V211.3a140.706 140.706 0 0 1 30.15 3.264v-101.65zm47.275 80.214a3.005 3.005 0 0 1-3 3h-88.551a3.006 3.006 0 0 1-3-3V96.722a3.006 3.006 0 0 1 3-3h88.552a3.005 3.005 0 0 1 3 3z" fill="#ffffff" data-original="#000000"></path></g></svg>