<svg enable-background="new 0 0 64 64" height="512" viewBox="0 0 64 64" width="512" xmlns="http://www.w3.org/2000/svg"><g id="Layer_51" fill="#00a651"><path d="m56.12 31.38h-2.87v-26.26c0-.55-.45-1-1-1h-40.5c-.55 0-1 .45-1 1v26.26h-2.87c-.56 0-1 .44-1 1v19.24c0 .56.44 1 1 1h2.87v6.26c0 .55.45 1 1 1h40.5c.55 0 1-.45 1-1v-6.26h2.87c.56 0 1-.44 1-1v-19.24c0-.56-.44-1-1-1zm-4.87 26.5h-38.5v-5.26h38.5zm-33.7-21.23c-.05-.08-.06-.181-.01-.261.04-.08.13-.13.22-.13h2.53c.09 0 .17.05.21.12l1.94 3.11 1.899-3.11c.05-.07.13-.12.21-.12h2.521c.09 0 .17.05.22.13.04.08.04.181-.01.261l-3.25 5.069 3.57 5.391c.061.08.061.18.021.26-.05.08-.13.13-.22.13h-2.62c-.08 0-.16-.04-.21-.12l-2.171-3.38-2.181 3.38c-.04.08-.12.12-.21.12h-2.6c-.09 0-.17-.05-.22-.13-.04-.08-.04-.18.02-.26l3.57-5.46zm18.58 8.54c.13 0 .25.109.25.25v1.81c0 .14-.12.25-.25.25h-7.56c-.141 0-.25-.11-.25-.25v-10.65c0-.14.109-.25.25-.25h2.17c.13 0 .25.11.25.25v8.591h5.14zm7.14-1.55c-.119-.14-.35-.27-.67-.39-.25-.08-.819-.24-1.71-.46-1.22-.3-2.05-.67-2.56-1.12-.71-.64-1.07-1.43-1.07-2.34 0-.6.17-1.16.51-1.68.33-.511.82-.91 1.45-1.181.61-.26 1.351-.39 2.21-.39 1.4 0 2.48.32 3.21.95s1.12 1.489 1.16 2.54c0 .14-.109.26-.24.26l-2.17.1c-.13 0-.239-.09-.26-.21-.08-.489-.25-.84-.5-1.04-.26-.199-.67-.31-1.22-.31-.57 0-1.021.12-1.34.34-.16.12-.24.271-.24.47 0 .181.08.33.24.46.16.141.62.37 1.89.67 1.07.25 1.87.511 2.4.79.54.29.97.681 1.279 1.181.311.5.46 1.12.46 1.84 0 .66-.18 1.29-.55 1.87-.37.569-.89 1.01-1.56 1.29-.66.27-1.48.41-2.44.41-1.41 0-2.52-.341-3.29-1-.77-.671-1.24-1.641-1.38-2.9-.01-.07.01-.14.05-.19s.101-.09.17-.09l2.11-.21c.14-.02.25.08.271.21.109.641.35 1.12.689 1.41s.811.44 1.41.44c.63 0 1.11-.13 1.41-.391.3-.239.45-.52.45-.84.001-.199-.059-.349-.169-.489zm7.98-12.26h-38.5v-25.26h38.5z"/><path d="m46.75 13.375h-29.5c-.553 0-1-.447-1-1s.447-1 1-1h29.5c.553 0 1 .447 1 1s-.447 1-1 1z"/><path d="m46.75 20.375h-29.5c-.553 0-1-.447-1-1s.447-1 1-1h29.5c.553 0 1 .447 1 1s-.447 1-1 1z"/><path d="m46.75 27.375h-29.5c-.553 0-1-.447-1-1s.447-1 1-1h29.5c.553 0 1 .447 1 1s-.447 1-1 1z"/></g></svg>